<?xml version="1.0" encoding="utf-8"?>
<!-- Generator: Adobe Illustrator 15.1.0, SVG Export Plug-In . SVG Version: 6.00 Build 0)  -->
<!DOCTYPE svg PUBLIC "-//W3C//DTD SVG 1.1//EN" "http://www.w3.org/Graphics/SVG/1.1/DTD/svg11.dtd">
<svg version="1.1"
	 id="svg2" image-rendering="optimizeQuality" text-rendering="geometricPrecision" shape-rendering="geometricPrecision" sodipodi:version="0.32" sodipodi:docname="ZZ1.svg" inkscape:output_extension="org.inkscape.output.svg.inkscape" inkscape:version="0.47 r22583" xmlns:svg="http://www.w3.org/2000/svg" xmlns:inkscape="http://www.inkscape.org/namespaces/inkscape" xmlns:sodipodi="http://sodipodi.sourceforge.net/DTD/sodipodi-0.dtd" xmlns:rdf="http://www.w3.org/1999/02/22-rdf-syntax-ns#" xmlns:cc="http://creativecommons.org/ns#" xmlns:dc="http://purl.org/dc/elements/1.1/"
	 xmlns="http://www.w3.org/2000/svg" xmlns:xlink="http://www.w3.org/1999/xlink" x="0px" y="0px" width="399.898px"
	 height="494.105px" viewBox="0 0 399.898 494.105" enable-background="new 0 0 399.898 494.105" xml:space="preserve">
<path fill="#FFFFFF" d="M289.601,459.223c-6.231,0.704-71.862-0.703-88.647,24.425c-16.685-25.128-82.315-23.721-88.647-24.425
	C7.777,447.664,9.687,363.641,9.687,363.641V11.16h382.531h0.001v352.48C392.219,363.641,394.23,447.664,289.601,459.223z"/>
<defs>
	
	
		<inkscape:perspective  id="perspective38" sodipodi:type="inkscape:persp3d" inkscape:vp_x="0 : 256.88977 : 1" inkscape:vp_y="0 : 1000 : 0" inkscape:vp_z="418.11023 : 256.88977 : 1" inkscape:persp3d-origin="209.05511 : 171.25985 : 1">
		</inkscape:perspective>
	
		<inkscape:perspective  id="perspective2852" sodipodi:type="inkscape:persp3d" inkscape:vp_x="0 : 0.5 : 1" inkscape:vp_y="0 : 1000 : 0" inkscape:vp_z="1 : 0.5 : 1" inkscape:persp3d-origin="0.5 : 0.33333333 : 1">
		</inkscape:perspective>
</defs>
<sodipodi:namedview  id="base" inkscape:window-height="968" guidetolerance="10.0" inkscape:pageshadow="2" inkscape:pageopacity="0.0" gridtolerance="10.0" objecttolerance="10.0" borderopacity="1.0" bordercolor="#666666" pagecolor="#ffffff" inkscape:zoom="1" inkscape:cx="259.85205" inkscape:cy="22.582992" inkscape:window-x="-4" inkscape:window-y="-4" inkscape:current-layer="Layer_x0020_1" showgrid="false" inkscape:window-maximized="0" inkscape:window-width="1280">
	</sodipodi:namedview>
<path fill="#428ECE" d="M83.8,399.693c0,0-18.541-4.711-20.044-14.433c0,0-0.901-6.715,2.605-13.229c0,0,5.412-1.103,5.913-3.206
	c0.4-2.104,0.2-5.013-2.807-6.113c-2.906-1.103-4.108-0.603-6.014,1.703c-1.805,2.306-0.802,3.909-0.802,3.909
	s3.407,4.408-2.506,8.519c0,0-3.708-10.522-3.708-17.539c0,0,4.811-14.432,11.325-25.056c2.706-4.409,8.618-13.029,8.618-13.029
	c0,19.143-13.229,36.182-13.229,36.182c18.441-10.824,19.844-36.182,19.844-40.09c0-3.81-2.205-14.132-2.205-14.132
	s-12.628,16.938-16.437,24.556c-3.809,7.517-5.312,11.524-8.118,19.744c0,0-0.501-15.535,0-17.34
	c0.902-3.007,7.718-10.824,7.718-10.824s3.106,0.401,4.311-1.903c1.202-2.204,1.503-5.714-1.403-6.815s-6.113,2.006-6.113,2.006
	c-1.103,2.605,0.301,5.611,0.301,5.611l-4.812,4.311l0.201-15.735c0,0,4.811-13.029,11.325-23.652
	c2.706-4.409,8.618-13.129,8.618-13.129c0,19.144-13.229,36.181-13.229,36.181c18.441-10.724,18.842-36.883,18.842-40.69
	s-1.203-13.431-1.203-13.431s-13.329,15.937-17.138,23.453c-3.809,7.518-4.61,11.225-7.417,19.344c0,0-0.501-14.031,0-15.836
	c0.902-3.008,7.718-10.824,7.718-10.824s3.106,0.301,4.311-1.904s1.503-5.713-1.403-6.814c-2.906-1.104-6.113,2.004-6.113,2.004
	c-1.103,2.605,0.301,5.613,0.301,5.613l-4.812,4.31l0.201-16.136c0,0,4.811-13.029,11.325-23.653
	c2.706-4.409,8.618-13.129,8.618-13.129c0,19.143-13.229,36.181-13.229,36.181c18.441-10.724,19.844-36.181,19.844-39.989
	s-2.205-14.131-2.205-14.131s-12.628,15.234-16.437,22.751c-3.809,7.517-5.312,11.926-8.118,20.044c0,0-0.501-14.031,0-15.835
	c0.902-3.006,7.718-10.824,7.718-10.824s3.106,0.301,4.311-1.904c1.203-2.205,1.503-5.713-1.403-6.815
	c-2.906-1.102-6.113,2.004-6.113,2.004c-1.103,2.606,0.301,5.613,0.301,5.613l-4.812,4.309l0.201-13.73
	c0,0,3.808-13.43,10.323-23.954c2.706-4.41,6.514-10.624,6.514-10.624c0,19.042-10.824,32.272-10.824,32.272
	c18.441-10.724,17.74-30.568,17.74-34.376c0-3.909-0.501-16.637-0.501-16.637s-12.829,13.53-16.738,21.047
	c-3.808,7.517-3.908,12.228-6.715,20.446c0,0-0.501-13.731,0-15.535c0.902-3.006,4.911-9.822,4.911-9.822s3.408,1.203,4.711-0.802
	c1.703-2.606,2.205-4.61-1.104-6.515c-2.705-1.604-5.713,1.002-5.713,1.002c-1.103,2.606,0.2,4.911,0.2,4.911l-3.007,3.608
	l0.201-11.225c0,0,2.405-13.43,8.92-24.054c2.706-4.41,7.917-12.729,7.917-12.729c0,19.144-10.122,30.969-10.122,30.969
	c16.036-11.526,18.842-32.072,18.842-35.88s-1.203-15.334-1.203-15.334s-14.633,15.435-18.541,22.952
	c-3.809,7.517-5.012,14.031-6.014,22.149c0,0-0.501-15.435,0-17.238c0.902-3.007,3.809-8.419,3.809-8.419s2.507,0.702,3.709-1.503
	s0.101-4.71-2.104-5.813c-2.806-1.503-4.009,0.601-4.009,0.601c-1.104,2.606,0.2,5.613,0.2,5.613l-2.306,1.904l-0.2-11.326
	c0,0,3.708-12.628,10.224-23.252c2.706-4.409,9.621-13.129,9.621-13.129c0,19.143-10.424,30.268-10.424,30.268
	c18.432-10.73,17.027-27.868,17.027-31.677c0-10.223-1.203-13.229-1.203-13.229S64.848,74.967,61.04,82.584
	c-3.81,7.517-5.212,15.134-7.918,23.352c-0.066-23.251-0.133-46.503-0.2-69.755c7.325,12.672,6.786,24.783,6.113,39.088
	c0,0,3.407-10.725,4.311-19.745c0.901-9.12-4.511-17.94-5.913-20.045c-1.403-2.104-4.911-12.728-4.911-12.728
	S52.02,27.762,47.71,35.78c-4.41,8.018-5.11,15.535-5.212,20.546c-0.301,7.717,7.216,26.159,7.817,27.161
	c0.802,1.704,0.301,24.354,0.301,24.354c-8.018-6.615-11.626-10.022-14.231-14.131c-4.511-6.916-6.313-19.744-6.313-19.744
	s4.711,5.312,7.517,8.118c2.808,2.806,9.521,14.131,9.521,14.131c1.403-15.334-22.25-34.978-22.25-34.978
	s-1.904,26.058,6.313,38.586c5.514,8.519,20.146,14.633,20.146,14.633v9.722l-3.509-2.205c0,0,1.104-3.208-0.301-5.613
	c0,0-3.508-2.806-6.313-1.403c-2.706,1.403-2.005,4.911-0.701,7.016c1.402,2.104,4.609,1.403,4.609,1.403s4.711,4.209,5.913,7.115
	c0.702,1.704,0.302,26.459,0.302,26.459c-8.02-6.615-10.624-10.924-13.23-15.034c-4.51-6.915-7.314-18.441-7.314-18.441
	s5.612,4.51,8.418,7.316c2.706,2.806,7.918,12.929,7.918,12.929c1.403-15.334-22.25-37.284-22.25-37.284s-1.402,25.758,6.313,38.687
	c6.314,10.624,20.146,16.537,20.146,16.537v9.521l-5.212-3.809c0,0,1.002-3.107-0.301-5.612c0,0-3.509-2.706-6.314-1.403
	c-2.806,1.403-2.104,4.911-0.701,7.016c1.403,2.105,4.511,1.403,4.511,1.403s6.515,6.815,7.717,9.722
	c0.702,1.704,0.302,26.459,0.302,26.459c-8.02-6.615-10.624-10.924-13.23-14.933c-4.51-7.016-7.314-18.441-7.314-18.441
	s5.612,4.51,8.418,7.216c2.706,2.807,7.918,12.929,7.918,12.929c1.403-15.334-22.25-37.283-22.25-37.283s-1.402,25.757,6.313,38.686
	c6.314,10.724,20.347,16.637,20.347,16.637l-0.2,10.123l-5.212-3.808c0,0,1.002-3.107-0.301-5.613c0,0-3.509-2.706-6.314-1.303
	c-2.806,1.303-2.104,4.811-0.701,6.916c1.403,2.104,4.511,1.403,4.511,1.403s6.515,6.815,7.717,9.722
	c0.702,1.704,0.302,26.459,0.302,26.459c-8.019-6.615-10.624-10.925-13.23-14.934c-4.51-7.016-7.314-18.441-7.314-18.441
	s5.612,4.51,8.418,7.316c2.706,2.706,7.918,12.829,7.918,12.829c1.403-15.334-22.25-37.283-22.25-37.283s-1.402,25.757,6.314,38.687
	c6.313,10.724,20.146,16.737,20.146,16.737v12.828l-5.212-3.809c0,0,1.002-3.106-0.301-5.613c0,0-3.508-2.705-6.314-1.402
	c-2.806,1.402-2.104,4.911-0.701,7.016c1.403,2.105,4.511,1.403,4.511,1.403s6.515,6.815,7.717,9.722
	c0.702,1.704,0.302,26.459,0.302,26.459c-8.019-6.613-10.624-10.924-13.229-14.934c-4.511-7.016-7.315-18.439-7.315-18.439
	s5.612,4.51,8.418,7.215c2.706,2.808,7.918,12.931,7.918,12.931c1.403-15.335-22.25-37.284-22.25-37.284s-1.402,25.758,6.314,38.688
	c6.313,10.725,20.146,16.336,20.146,16.336v12.828l-5.212-3.808c0,0,1.002-3.106-0.301-5.513c0,0-3.508-2.807-6.314-1.403
	c-2.806,1.403-2.104,4.812-0.701,6.916c1.403,2.104,4.511,1.402,4.511,1.402s6.515,6.916,7.717,9.723
	c0.702,1.804,0.302,26.459,0.302,26.459c-8.019-6.614-10.624-10.926-13.229-14.935c-4.511-6.915-7.315-18.44-7.315-18.44
	s5.612,4.511,8.418,7.315c2.706,2.808,7.918,12.828,7.918,12.828c1.403-15.232-22.25-37.183-22.25-37.183
	s-1.402,25.757,6.314,38.586c6.313,10.724,20.847,16.737,20.847,16.737c0.701,6.916,2.104,16.036,2.104,16.036
	c-6.313-3.509-4.91-6.313-4.91-6.313s0.701-2.807-1.403-4.912c-2.004-2.004-4.108-3.406-6.915-2.004s-1.403,4.109-0.701,6.215
	c0.701,2.104,4.209,3.508,4.209,3.508c2.104,2.806,12.127,10.423,12.127,10.423c8.72,24.756,31.671,30.669,31.671,30.669
	L83.8,399.693z M80.883,404.302c-0.301,2.104-0.7,2.507-2.807,1.103c-2.003-1.402-6.512-4.209-9.319-9.42
	c0,0,8.019,5.912,10.022,6.313C80.883,402.6,81.285,402.298,80.883,404.302z"/>
<path fill="#428ECE" d="M358.401,327.729c-3.908,7.517-5.412,11.525-8.118,19.744c0,0-0.501-15.535,0-17.339
	c0.803-3.007,7.616-10.823,7.616-10.823s3.207,0.401,4.41-1.904c1.104-2.204,1.503-5.713-1.403-6.815
	c-2.905-1.101-6.112,2.005-6.112,2.005c-1.104,2.606,0.199,5.612,0.199,5.612l-4.811,4.31l0.2-15.734
	c0,0,4.911-13.029,11.426-23.652c2.706-4.41,8.619-13.129,8.619-13.129c0,19.143-13.229,36.18-13.229,36.18
	c18.441-10.722,18.742-36.881,18.742-40.689s-1.203-13.43-1.203-13.43s-13.229,15.935-17.038,23.451
	c-3.907,7.519-4.71,11.226-7.416,19.344c0,0-0.501-14.03,0-15.836c0.803-3.006,7.616-10.823,7.616-10.823s3.207,0.301,4.41-1.904
	c1.104-2.205,1.503-5.712-1.403-6.813c-2.905-1.104-6.112,2.004-6.112,2.004c-1.104,2.604,0.199,5.611,0.199,5.611l-4.811,4.311
	l0.2-16.137c0,0,4.911-13.028,11.426-23.652c2.706-4.409,8.619-13.129,8.619-13.129c0,19.143-13.229,36.181-13.229,36.181
	c18.442-10.723,19.846-36.18,19.846-39.989c0-3.808-2.307-14.131-2.307-14.131s-12.527,15.234-16.336,22.751
	c-3.909,7.516-5.412,11.926-8.118,20.044c0,0-0.501-14.031,0-15.835c0.803-3.006,7.616-10.824,7.616-10.824s3.207,0.301,4.41-1.904
	c1.104-2.205,1.503-5.712-1.403-6.815c-2.905-1.103-6.112,2.004-6.112,2.004c-1.104,2.606,0.199,5.613,0.199,5.613l-4.811,4.309
	l0.2-13.73c0,0,3.909-13.431,10.323-23.954c2.705-4.41,6.614-10.624,6.614-10.624c0,19.043-10.823,32.272-10.823,32.272
	c18.439-10.724,17.738-30.568,17.738-34.376c0-3.909-0.501-16.637-0.501-16.637s-12.929,13.53-16.736,21.047
	c-3.909,7.517-4.01,12.228-6.716,20.446c0,0-0.501-13.731,0-15.535c0.803-3.007,4.911-9.822,4.911-9.822s3.307,1.203,4.609-0.802
	c1.704-2.606,2.205-4.611-1.002-6.515c-2.706-1.604-5.713,1.002-5.713,1.002c-1.203,2.606,0.2,4.911,0.2,4.911l-3.106,3.608
	l0.2-11.225c0,0,2.406-13.43,9.021-24.054c2.606-4.41,7.918-12.729,7.918-12.729c0,19.142-10.123,30.969-10.123,30.969
	c16.036-11.526,18.742-32.071,18.742-35.88c0-3.808-1.203-15.334-1.203-15.334s-14.632,15.435-18.44,22.952
	c-3.909,7.516-5.012,14.031-6.014,22.149c0,0-0.501-15.434,0-17.238c0.803-3.007,3.809-8.419,3.809-8.419s2.506,0.702,3.709-1.503
	c1.103-2.205,0.1-4.71-2.104-5.813c-2.807-1.503-4.01,0.601-4.01,0.601c-1.202,2.606,0.2,5.613,0.2,5.613l-2.404,1.904
	l-0.101-11.326c0,0,3.607-12.628,10.122-23.252c2.706-4.409,9.722-13.129,9.722-13.129c0,19.143-10.521,30.268-10.521,30.268
	c18.44-10.724,17.138-27.862,17.138-31.671c0-10.222-1.203-13.229-1.203-13.229s-15.734,14.132-19.543,21.749
	c-3.91,7.517-5.212,15.134-8.02,23.352c-0.065-23.252-0.133-46.504-0.199-69.756c7.384,12.602,6.869,24.814,6.113,39.088
	c0,0,3.509-10.725,4.409-19.745c0.802-9.12-4.609-17.94-5.913-20.045c-1.402-2.104-4.911-12.728-4.911-12.728
	s-0.501,5.011-4.91,13.029c-4.31,8.018-5.012,15.535-5.212,20.546c-0.201,7.717,7.316,26.159,7.817,27.161
	c0.901,1.704,0.4,24.354,0.4,24.354c-8.019-6.614-11.626-10.022-14.332-14.131c-4.511-6.915-6.214-19.744-6.214-19.744
	s4.711,5.312,7.518,8.118c2.706,2.806,9.521,14.131,9.521,14.131c1.402-15.334-22.25-34.978-22.25-34.978
	s-1.903,26.058,6.214,38.586c5.612,8.519,20.246,14.633,20.246,14.633v9.722l-3.509-2.205c0,0,1.002-3.208-0.301-5.613
	c0,0-3.507-2.806-6.313-1.403c-2.806,1.403-2.105,4.912-0.701,7.016s4.51,1.403,4.51,1.403s4.81,4.209,5.913,7.115
	c0.701,1.704,0.401,26.459,0.401,26.459c-8.018-6.615-10.624-10.925-13.229-15.034c-4.51-6.915-7.316-18.441-7.316-18.441
	s5.512,4.509,8.318,7.316c2.807,2.806,8.019,12.929,8.019,12.929c1.402-15.335-22.25-37.284-22.25-37.284
	s-1.402,25.758,6.214,38.687c6.415,10.624,20.246,16.537,20.246,16.537v9.521l-5.213-3.809c0,0,1.003-3.107-0.4-5.612
	c0,0-3.508-2.706-6.214-1.403c-2.806,1.404-2.104,4.912-0.701,7.016c1.404,2.105,4.511,1.403,4.511,1.403s6.514,6.815,7.616,9.722
	c0.701,1.704,0.401,26.459,0.401,26.459c-8.018-6.615-10.624-10.924-13.229-14.933c-4.51-7.016-7.315-18.441-7.315-18.441
	s5.511,4.51,8.317,7.216c2.808,2.806,8.019,12.929,8.019,12.929c1.402-15.334-22.25-37.283-22.25-37.283s-1.402,25.757,6.214,38.686
	c6.415,10.724,20.445,16.637,20.445,16.637l-0.199,10.123l-5.213-3.808c0,0,1.003-3.107-0.4-5.613c0,0-3.508-2.706-6.214-1.303
	c-2.806,1.303-2.104,4.811-0.701,6.916c1.404,2.105,4.511,1.403,4.511,1.403s6.513,6.814,7.616,9.722
	c0.701,1.704,0.401,26.459,0.401,26.459c-8.018-6.615-10.624-10.925-13.229-14.934c-4.51-7.016-7.316-18.441-7.316-18.441
	s5.512,4.51,8.318,7.316c2.807,2.706,8.019,12.829,8.019,12.829c1.402-15.334-22.25-37.283-22.25-37.283s-1.402,25.758,6.214,38.687
	c6.415,10.723,20.246,16.737,20.246,16.737v12.828l-5.213-3.81c0,0,1.003-3.105-0.4-5.611c0,0-3.508-2.706-6.214-1.403
	c-2.806,1.403-2.104,4.912-0.701,7.017c1.404,2.104,4.511,1.402,4.511,1.402s6.513,6.816,7.616,9.723
	c0.701,1.703,0.401,26.459,0.401,26.459c-8.018-6.615-10.624-10.925-13.229-14.935c-4.51-7.015-7.316-18.44-7.316-18.44
	s5.512,4.512,8.318,7.217c2.807,2.807,8.019,12.93,8.019,12.93c1.402-15.335-22.25-37.284-22.25-37.284s-1.402,25.759,6.214,38.687
	c6.415,10.726,20.246,16.338,20.246,16.338v12.828l-5.213-3.809c0,0,1.003-3.107-0.4-5.513c0,0-3.508-2.806-6.214-1.403
	c-2.806,1.403-2.104,4.811-0.701,6.916c1.404,2.104,4.511,1.402,4.511,1.402s6.513,6.916,7.616,9.723
	c0.701,1.803,0.401,26.459,0.401,26.459c-8.018-6.615-10.624-10.926-13.229-14.934c-4.51-6.916-7.316-18.441-7.316-18.441
	s5.512,4.51,8.318,7.316s8.019,12.828,8.019,12.828c1.402-15.234-22.25-37.184-22.25-37.184s-1.402,25.758,6.214,38.586
	c6.415,10.723,19.976,16.98,19.976,16.98s-0.438,9.787-3.338,15.392c-5.813-4.11-2.405-8.519-2.405-8.519s0.903-1.604-0.901-3.909
	c-1.905-2.306-3.107-2.806-6.015-1.703c-2.906,1.101-3.207,4.009-2.706,6.113c0.401,2.104,5.813,3.207,5.813,3.207
	c3.607,6.514,2.604,13.229,2.604,13.229c-1.503,9.722-19.943,14.433-19.943,14.433l-4.511,15.135c0,0,22.951-5.913,31.672-30.669
	c0,0,10.122-7.617,12.227-10.423c0,0,3.408-1.404,4.109-3.508c0.701-2.105,2.104-4.812-0.701-6.215
	c-2.706-1.402-4.812,0-6.916,2.004c-2.104,2.105-1.402,4.912-1.402,4.912s1.402,2.805-4.911,6.313
	c1.942-10.091,2.605-17.94,2.605-17.94s4.911-14.432,11.42-25.06c2.706-4.409,8.619-13.029,8.619-13.029
	c0,19.144-13.229,36.181-13.229,36.181c18.442-10.823,19.846-36.181,19.846-40.09c0-3.809-2.307-14.131-2.307-14.131
	S362.21,320.112,358.401,327.729z M323.827,405.404c-2.104,1.404-2.405,1.002-2.806-1.103c-0.301-2.004,0-1.702,2.104-2.004
	c2.104-0.401,10.122-6.313,10.122-6.313C330.442,401.195,325.932,404.002,323.827,405.404z"/>
<g>
	<path fill="#428ECE" d="M211.978,241.339c-0.057-0.037-0.112-0.076-0.167-0.116c-0.098-0.07-0.193-0.144-0.289-0.221l0.029,0.041
		c0.029,0.04,0.057,0.083,0.083,0.125l0.004,0.001L211.978,241.339z"/>
	<path fill="#428ECE" d="M211.131,240.671c0.131,0.116,0.261,0.227,0.392,0.332C211.411,240.861,211.286,240.741,211.131,240.671z"
		/>
	<path fill="#428ECE" d="M302.981,63.342c-4.812-1.704-10.123-0.401-12.929,1.002c-2.808,1.403-4.911,7.817-2.105,10.624
		c2.807,2.807,1.304,10.023,1.904,12.829c0.602,2.506-0.501,6.815-0.501,6.815c-1.002,1.403,0.602,6.615-0.301,7.717
		c-1.805,2.004-0.901,5.212-0.901,5.212s-0.501,1.403-0.902,3.408c-0.301,2.104-0.301,5.612-0.301,5.612
		c0.301,3.107-0.701,6.615-0.701,6.615s-1.504,5.913-3.106,9.722c-1.104,2.405,0.501,3.508-2.306,7.316c0,0-1.203,4.911-1.903,7.116
		c0,0-3.81,3.708-5.913,6.815c0,0-3.509,4.71-5.013,7.316c0,0-1.303,1.704-3.708,5.713c0,0-7.616,3.007-8.819,6.113
		c-0.602,1.403-7.217,3.508-11.826,7.517c-0.701,0.501-7.717,3.308-8.92,3.408c0,0-5.913,0.501-7.616,2.305
		c0,0-8.419,1.704-9.822,2.405c0,0-2.171,0.597-4.183,1.013c-0.18-3.001-0.628-6.525-0.628-6.525
		c0.329-0.461,0.441-1.713,0.457-3.323l0.345,0.016c2.806,0.1,11.525-3.508,11.525-3.508c8.618-0.902,12.827-5.212,12.827-5.212
		c4.712-0.701,4.911-2.806,4.911-2.806c1.904-0.301,6.415-2.405,6.415-2.405c2.605-0.401,5.111-5.512,5.111-5.512
		c0.701-0.602,3.407-3.408,3.407-3.408c3.708-1.704,6.814-8.318,7.717-9.521c2.306-3.207,3.007-5.613,3.608-6.514
		c1.604-2.005,4.51-11.827,5.212-14.533c0.7-2.706,1.604-3.809,2.506-10.123c1.002-7.316,1.503-16.537,1.503-16.537
		c-0.101-4.911,0.401-7.617,0.401-7.617s-0.902-3.308-0.902-6.114s0.701-10.423,3.508-14.633s-1.804-9.121-7.016-9.421
		c-6.214-0.301-8.619,2.104-11.427,3.507c-2.806,1.403-6.313,7.818-3.508,10.624c2.807,2.806,2.706,8.62,3.309,11.425
		c0.501,2.506,0.901,7.517,0.901,7.517c-1.103,1.403-1.103,4.209-1.103,5.612c0,1.403-0.802,4.109-0.802,4.109
		s-0.603,2.806-0.201,4.911c0.4,2.505,0.702,5.211,0.702,5.211c-2.808,0.702-1.403,8.018-1.403,8.018s-4.21,6.214-5.212,10.123
		c-0.701,2.606-2.405,4.51-4.409,8.318c0,0-2.405,0.902-2.907,1.604c0,0-6.312,3.307-8.317,8.118c0,0-5.612,2.306-7.217,4.911
		c0,0-5.513,1.002-7.417,2.907c0,0-8.92,4.61-10.321,5.111c-0.56,0.205-1.098,0.317-1.647,0.366
		c0.077-4.025-0.163-8.04-0.582-11.829c10.461-1.582,19.316-6.125,21.974-8.782c2.706-2.806,1.304-3.508,3.407-4.109
		c2.104-0.702,4.511-7.016,6.614-9.12c1.904-1.904,2.506-5.513,4.511-10.022c3.207-6.916,3.207-13.631,3.207-13.631
		c2.706-3.508-0.702-9.02-0.702-9.02s0.702-6.314,0.702-9.02c0-2.806,0.302-10.523,1.304-15.034
		c1.201-4.811,1.402-7.617-3.408-9.321c-4.71-1.704-12.228-1.804-15.033-0.401c-2.706,1.403-9.021,8.018-6.214,10.824
		c2.807,2.706,6.214,9.021,6.916,11.827c0.701,2.806,1.401,10.724,1.401,10.724c-1.002,1.403,0.401,2.105,0.401,3.508
		s0,2.405,0,2.405s-1.103,9.121-3.106,10.524c-2.104,1.303-1.402,4.811-1.402,4.811c-2.807,0.702-4.21,7.316-4.21,7.316
		s-4.41,4.71-6.314,5.913c-4.107,2.807-5.512,2.506-9.722,3.107c-0.644,0.107-1.588,0.309-2.68,0.539
		c-0.191-3.127-0.126-5.35-0.126-5.35s0.399-2.806,0.399-5.612c0-2.807-1.401-3.107-1.401-3.107l1.401-3.106
		c0,0,1.403-0.702,1.403-2.105s-1.403-2.405-1.403-2.405c0.702-1.104,0-6.615,0-8.72c0-2.104-0.701-4.911-0.701-4.911
		c0.701-2.806,0.302-8.018-0.301-9.722c-0.702-1.704-1.402-5.612-0.399-7.617c1.002-2.105,4.909-8.419,6.312-10.524
		c1.303-2.004,2.706-6.214-7.717-9.721c-10.424-3.508-15.335,1.102-18.742,2.806c-3.508,1.704-2.104,6.916-2.104,9.021
		c0,2.104,6.613,7.016,6.613,9.12c0,2.004-0.7,3.809-0.7,5.914c0,2.004-0.401,3.809,0.301,4.811c0,0-2.405,1.403-2.405,2.405
		c0,1.103,1.403,2.105,2.104,3.508c0.7,1.403-0.401,1.403-0.401,1.403s-2.004,2.405-1.703,3.809c0.3,1.403,0.701,3.809,2.104,4.209
		c1.402,0.301-1.104,1.704,0,3.107c0,0-1.403,1.403-1.403,3.508s2.405,4.51,2.405,4.51s-2.104,0.702-1.703,2.104
		c0,0-1.104,2.406-1.104,4.209c0,1.35,0.254,4.462,0.508,8.636l-0.105-0.017c-4.209-0.602-9.722-1.804-12.528-5.913
		c-2.405-3.408-4.51-4.109-4.51-4.109s-1.403-6.615-4.209-7.316c0,0,0.701-3.508-1.403-4.911c-2.104-1.403-3.407-8.72-3.407-8.72
		s1.003-1.403,1.003-2.706c0-1.403,0.301-1.804-0.702-3.207c0,0,0-9.321,0.702-12.127c0.7-2.806,4.209-9.121,6.914-11.827
		c2.808-2.806,2.104-7.717-0.7-9.121c-2.706-1.303-15.735-3.007-20.446-1.303c-4.91,1.704-8.418,5.211-5.612,9.321
		c2.808,4.209,4.51,10.824,4.51,13.631c0,2.706,0.702,9.02,0.702,9.02s-2.104,4.911,0.701,8.319c0,0,0.702,8.82,3.81,15.735
		c2.104,4.51,1.604,8.519,3.508,10.423c2.104,2.105,4.51,7.317,6.615,8.018c2.104,0.702,0.7,1.303,3.508,4.109
		c2.667,2.766,10.201,8.938,21.065,9.692c-0.076,1.104-0.073,1.875,0.08,2.134c0.702,1.102,1.403,2.505,1.403,3.507
		c0,0.68-0.965,2.511-1.464,5.024c-1.259-0.327-2.729-0.806-3.547-1.215c-2.307-1.002-9.222-4.31-9.222-4.31
		c-1.903-1.904-7.517-2.605-7.517-2.605c-1.504-2.606-6.715-4.51-6.715-4.51c-2.104-3.208-4.21-5.111-4.21-5.111
		c-0.501-0.702-4.71-5.011-4.71-5.011c-2.808-3.809-5.013-6.314-6.114-8.72c-1.604-3.809-5.211-8.318-5.211-8.318
		s0.701-8.72-2.105-9.421c0,0-1.103-2.005-0.7-4.51c0.4-2.105-0.102-4.911-0.102-4.911s-0.901-2.706-0.901-4.109
		c0-1.403,0.4-1.804-0.701-3.207c0,0,0-7.417,0.501-9.922c0.602-2.806-1.503-10.724,1.203-13.53c2.807-2.807,1.402-8.52-1.304-9.922
		c-2.807-1.403-9.221-2.706-13.932-1.002c-4.911,1.703-8.419,5.211-5.612,9.32c2.807,4.209,4.51,10.825,4.51,13.631
		c0,2.806,0.201,7.417,0.201,7.417s0.501,2.806,0.3,7.717c0,0,0.902,7.817,2.006,15.134c0.901,6.314,1.704,7.417,2.404,10.123
		c0.702,2.706,3.608,9.02,5.212,11.125c0.701,0.902,1.403,3.207,3.608,6.414c0.901,1.203,4.409,9.922,8.018,11.626
		c0,0,3.308,2.305,4.01,2.806c0,0,3.007,5.413,5.611,5.713c0,0,4.109,3.208,6.114,3.508c0,0,1.904,3.107,6.614,3.809
		c0,0,2.005,3.207,9.021,3.809c0,0,7.316,3.307,10.022,3.207c0,0,1.381,0.354,4.062,0.676c0.184,1.072,0.396,1.878,0.647,2.23
		c0,0-0.843,5.318-0.981,8.594c-2.504-0.345-6.636-1.278-6.636-1.278c-1.402-0.701-9.722-2.405-9.722-2.405
		c-1.805-1.804-6.313-3.007-6.313-3.007c-1.203-0.1-7.116-3.207-7.816-3.808c-4.711-4.009-11.626-6.815-12.127-8.118
		c-1.305-3.208-6.815-4.71-6.815-4.71c-2.405-4.009-7.116-7.817-7.116-7.817c-1.604-2.706-4.41-5.312-4.41-5.312
		c-2.104-3.107-4.51-7.417-4.51-7.417c-0.501-0.701-1.503-7.116-1.503-7.116c-2.807-3.909-2.005-4.61-3.007-7.016
		c-1.604-3.809-4.21-9.722-4.21-9.722s-0.701-3.808-0.3-7.016c0,0-1.704-2.405-2.105-4.51c-0.301-2.005,0.201-4.811,0.201-4.811
		s1.202-1.804-0.502-3.809c-0.901-1.103-0.4-2.806-1.403-4.209c0,0-1.401-7.817-0.9-10.323c0.602-2.806-1.604-10.724,1.201-13.53
		c2.808-2.807,1.403-8.52-1.401-9.922c-2.706-1.403-8.118-1.704-12.829,0c-4.911,1.704-6.314,6.314-3.508,10.423
		c2.807,4.209,1.402,8.72,1.402,11.526c0,2.806-0.199,6.414-0.199,6.414s0.199,5.212,0,10.123c0,0,0.501,5.712,1.604,13.029
		c0.901,6.313,0.701,5.712,1.403,8.319c0.701,2.806,0.501,10.123,2.104,12.227c0.603,0.902,1.304,3.207,3.607,6.414
		c0.901,1.203,2.306,9.221,6.313,12.328c0,0,1.904,7.316,6.414,10.824c0,0,3.107,5.212,4.511,5.012c0,0,3.106,5.913,5.012,6.313
		c0,0,1.604,5.914,6.313,6.615c0,0,2.906,5.011,7.617,5.913c0,0,4.009,5.412,9.021,5.512c0,0-1.503,4.009,7.315,4.009l0.902,0.401
		c0,0,2.807,2.104,5.211,2.104c0,0,8.319,3.408,10.424,3.107c0,0,3.526,0.462,8.419,0.954v9.47c0,0,4.51,1.002,4.51,3.508
		c0,2.405,0,3.408,1.704,3.808c0,0,1.403,1.003,0.4,3.508c0,0-1.103,1.403-1.103,3.408c0,0-3.509,1.403-3.509,6.314h-2.404v7.316
		h4.511c0,0,0.399,0.702,0.399,1.704c0,1.103,1.003,5.212,0.302,6.314c-0.701,1.002-2.104,2.404-2.808,3.406
		c-0.601,1.104-8.619,4.311-10.021,20.245c-0.4,3.81-5.211,4.812-9.722,6.215h72.361c-5.212-1.403-7.316-2.405-7.717-6.215
		c-1.403-15.937-9.321-19.144-10.023-20.245c-0.701-1.002-2.104-2.404-2.806-3.406c-0.702-1.104,0.301-5.213,0.301-6.314
		c0-1.002,0.4-1.704,0.4-1.704h4.511v-7.316h-2.406c0-4.911-3.508-6.314-3.508-6.314c0-2.005-1.002-3.408-1.002-3.408
		c-1.103-2.505,0.301-3.508,0.301-3.508c1.704-0.4,1.704-1.403,1.704-3.808c0-2.505,4.61-3.508,4.61-3.508v-9.656
		c3.451-0.866,8.456-2.273,10.021-2.571c2.104-0.301,4.91-1.002,7.316-1.704c2.405-0.702,2.104-2.105,4.71-2.105
		c8.52,0,8.72-2.906,8.72-2.906c5.011-0.2,7.316-5.612,7.316-5.612c6.014-1.103,10.423-6.615,10.423-6.615
		c3.909-0.601,5.913-6.214,5.913-6.214c1.904-0.401,6.114-6.314,6.114-6.314c1.402,0.2,3.406-5.011,3.406-5.011
		c4.61-3.508,6.516-12.929,6.516-12.929c4.009-3.107,3.607-7.216,4.51-8.519c2.506-3.508,2.706-8.118,3.309-8.82
		c1.503-2.104,2.404-9.722,3.106-12.528c0.701-2.606,0.501-2.105,1.402-8.419c1.002-7.216,1.604-13.029,1.604-13.029
		c-0.199-4.811-1.103-9.722-1.103-9.722s-0.2-3.608-0.2-6.414c0-2.806-1.403-7.316,1.403-11.526
		C309.195,70.658,307.791,65.045,302.981,63.342z M267.501,140.313c-0.901,1.604-2.404,3.608-3.809,2.004
		c-1.002-1.102-2.706-1.002-3.207-2.004c-0.603-1.303,1.503-1.203,1.904-2.605c0.4-1.904,2.205,0.902,3.508,1.002
		C266.699,138.71,267.902,139.512,267.501,140.313z M273.014,115.859c-0.603,0.602-2.307,0.501-3.208,0
		c-3.14-1.766,0.347-4.396,1.248-6.668c-0.085-1.242-0.192-2.509,0.256-3.554c0.101-0.301,0.101-0.902,0.501-1.002
		c0.702-0.401,1.604,0,1.903,0.401C276.421,108.342,275.82,113.053,273.014,115.859z M264.795,73.264
		c2.104-0.401,4.109-0.401,5.812-1.002c0.502-0.201,1.403-0.201,1.905-0.802c0.801-1.002,1.102-2.405,2.104-3.006
		c1.002-0.602,2.204,0,2.605,1.002c0.501,1.203,0.301,2.807,0,4.109c-0.401,1.503-1.704,2.706-2.205,4.209
		c-0.501,1.303-0.101,2.706-0.2,4.209c-0.603,4.811,0.2,9.621,0.802,14.633c0.102,0.701-0.2,2.405-1.403,3.006
		c-2.004,1.002-4.108,1.303-6.214,1.303c-0.512,0-0.758-0.481-0.773-1.014c-0.007-0.196,0.02-0.4,0.073-0.589l-0.401,1.002
		c-0.2-1.303,1.303-1.203,1.704-2.105c0.301-0.702,0.501-1.603,0.602-2.405c0.701-3.107-0.101-5.914-1.203-8.62
		c1.304,0.301,2.205-0.702,2.605-1.804c1.003-3.107,1.203-7.316-1.804-9.12c-1.202-0.702-3.106-0.602-4.61-1.103
		C262.991,74.867,263.593,73.464,264.795,73.264z M263.492,119.868c0.102-0.101,0.4,0,0.603,0l0.399,1.403
		c0.032-0.159,0.083-0.31,0.137-0.455c0.113-0.312,0.232-0.606,0.164-0.948c2.808-0.201,5.812,0.3,8.019,2.104
		c-1.002,2.706-0.701,6.013-2.706,8.118c-0.901,0.902-3.007,0.2-4.108-0.702c-0.702-0.601-1.203-1.904-0.301-2.305
		c2.004-1.002,3.407-2.405,2.405-4.41c-0.902-1.804-3.309,0.501-4.511-0.902C263.292,121.471,262.891,120.469,263.492,119.868z
		 M260.385,133.197c2.906-1.503,6.014,0.802,8.92,1.704c0.301,0.101,0.802,0.702,0.602,0.902c-0.802,0.902-2.405,0.702-3.207,0.2
		c-1.804-1.103-3.908-0.902-5.612-2.004C260.886,133.799,259.884,133.498,260.385,133.197z M253.47,148.532
		c0.7-0.401,1.804-0.1,2.705-0.802h-1.804c0.588,0,1.226-0.073,1.804-0.217c0.604-0.15,1.146-0.378,1.504-0.685
		c0.802-0.702-0.803-2.906,0.901-3.107c2.104-0.3,3.81,1.203,5.111,2.706c0.802,0.902,0.802,2.405,0.2,3.208
		c-0.602,1.002-2.205,0.901-3.106,1.703c-0.602,0.501-0.602,1.704-1.303,2.205c-0.401,0.201-1.304,0.702-1.403,0.401
		c-0.301-0.702-1.103-0.702-1.403-1.303c-0.501-0.702-1.903-1.002-2.404-1.604C253.571,150.136,252.067,149.434,253.47,148.532z
		 M246.855,155.447c0.4-0.501,1.203-0.702,1.903-0.902c1.004-0.401-0.1-1.203,0.102-2.004c0.301,0.1,0.501-0.101,0.701-0.301
		c-0.4,0.101-0.602-0.201-0.4-0.301c1.804-0.702,2.605,1.704,3.407,3.107c0.2,0.401-0.101,1.002,0.2,1.303
		c0.602,0.802,1.203,1.503,0.901,2.505c-0.1,0.201-0.399,0.501-0.7,0.601c-2.006,0.602-3.008-1.704-4.511-2.706
		c-0.301-0.1-0.702,0.101-1.003-0.1C247.056,156.35,246.454,155.849,246.855,155.447z M241.444,163.265
		c0.601-0.802,2.204,0.802,3.508,0.4l-1.003-0.702c2.807-0.2,0.902-2.305,1.403-4.109c1.604,1.704,3.508,3.909,2.604,6.114
		c-0.602,1.403-2.706,1.403-4.108,1.904C241.844,167.675,240.24,164.668,241.444,163.265z M241.743,132.997
		c-0.602,0.802-2.004,0.802-2.505,0c-0.201-0.2-0.501-0.601-0.501-1.002c-0.101-0.501-0.702-1.103-0.603-1.203
		c1.504-1.303,3.407-1.403,4.812-2.907C244.149,129.89,242.846,131.494,241.743,132.997z M243.448,123.175
		c-0.802-0.301-2.605-1.103-3.809-1.704c-0.603-0.2,0.101-1.303,0.4-1.503c1.303-1.203,2.807-0.902,3.607-2.406
		c0.501-1.102,0.301-2.605,1.304-2.906c1.103,0.802,3.207,0.301,3.207,1.403C248.258,118.866,245.853,124.077,243.448,123.175z
		 M249.561,111.85c-0.4-0.1-0.602,0.301-0.701,0.301c-2.104,0-3.81-1.503-5.913-1.804c-0.301-0.1-1.503-0.1-1.002-0.902
		c0.802-1.202,2.305-1.403,3.307-2.205c0.902-0.902,3.208,0.501,3.408,2.506c0,0.1,0.602,0.501,0.802,0.801
		C249.661,110.848,249.561,111.349,249.561,111.85z M251.065,101.828c0.602,1.303-0.2,4.41-0.902,4.31
		c-3.207-1.203-7.617-1.904-6.515-3.307c2.104-0.201,3.106,0.501,5.212,0.3C249.461,102.128,250.162,100.124,251.065,101.828z
		 M235.63,76.271c-0.602-0.702-0.501-2.004,0.701-2.305c4.41-0.902,8.521-0.1,12.829-0.702c1.604-0.2,1.104,1.002,1.104,1.203
		c-0.201,2.606-3.008,5.312-1.604,8.018c2.205,4.31,0.901,8.519,1.904,13.029c0.301,1.503-0.502,2.907-1.203,3.608
		c-2.205,2.104-5.713,1.002-8.019-0.702c-1.103-0.802-0.301-2.104,1.202-2.405c1.003-0.2,2.005,0,2.706-0.301
		c2.205-1.203,2.406-4.109,1.904-6.013c-0.501-1.704-2.706-1.704-4.61-1.503c1.604-0.602,3.909-2.807,2.307-3.909
		c-1.203-0.802-3.008-1.002-4.21-1.905c-0.803-0.4-0.701-1.904-1.402-2.806C238.336,78.275,236.733,77.573,235.63,76.271z
		 M228.013,135.603c0.901-0.301,2.204,0.201,2.905-0.201c1.104-0.701,1.904-1.904,2.808-2.806c1.202-1.102,3.105,0.301,3.907,1.905
		c0.401,0.801,0,1.804-0.399,2.305c-0.701,0.802-1.104,2.004-2.005,2.506c-0.901,0.401-1.703,0.902-2.505,1.303
		c-2.506,1.002-4.61-1.704-5.212-4.009C227.411,136.104,227.813,135.703,228.013,135.603z M151.843,75.269
		c-1.003-1.203-0.2-2.807,1.003-3.208c3.106-1.203,6.614-1.002,10.021-0.301c1.002,0.101,2.104,0.2,3.106,0.501
		c1.704,0.501,3.007,2.004,2.306,3.708c-1.003,2.305-2.906,4.109-3.908,6.414c-1.304,3.007,0.4,6.314-0.101,9.622
		c-0.501,3.107-2.605,5.212-5.612,5.914c-1.003,0.2-2.104,0.2-2.605-0.702c-2.005-3.307,2.705-3.708,3.908-5.914
		c0.302-0.601,0.4-1.603,0-1.904c-1.704-1.804-2.506-3.809-3.708-5.713c-1.104-1.904,0.501-4.109-0.802-5.813
		C154.549,76.671,152.745,76.371,151.843,75.269z M153.546,103.13c-0.199-0.201-0.199-0.902,0-0.902
		c1.484-0.625,3.151-0.581,4.812-0.53c0.471,0.014,0.938,0.029,1.403,0.029h-1.403c2.205,0.301,4.511-0.701,6.516,0.501
		c0.2,0.1,0.2,0.701,0,0.902c-1.604,1.704-3.809,0.401-5.913,0.902C157.155,104.433,155.05,104.935,153.546,103.13z
		 M163.268,111.549c0.101,1.503-3.006,1.704-4.609,2.004c0-0.201,0-1.103,0-1.303C160.462,112.351,162.968,109.444,163.268,111.549z
		 M159.259,119.768c-0.074,0.076-0.608,0.323-0.995,0.092c-0.01,0.096-0.028,0.191-0.063,0.288c-0.049,0.139-0.127,0.28-0.243,0.422
		v-1.103c0.073,0.195,0.184,0.318,0.308,0.393c0.078-0.831-0.677-1.614-0.206-2.397c0.3-0.601,1.103-0.802,1.703-1.002
		c2.306-0.802,4.812-0.702,7.217-0.301c0.901,0.2,2.104,0.902,1.303,1.403C165.473,119.367,161.865,116.961,159.259,119.768z
		 M165.273,129.489c-0.701,0.201-1.002,1.103-1.303,1.002c-1.104-0.4,0.1-1.202-0.2-2.104c0.602,0.1,0.501-1.403,1.202-1.203
		c-0.2-2.706,2.205-4.71,4.409-3.909c0.803,0.201,1.805,1.303,1.403,2.405C169.782,127.886,167.678,128.988,165.273,129.489z
		 M168.981,134.701c-0.802-1.002,0.301-2.506,1.504-3.408c1.403-1.203,2.505-2.405,4.109-1.203c0.3,0.2,0.199,1.002,0.1,1.604
		c-0.501,1.804-2.506,1.503-3.607,2.706C170.585,135.002,169.281,135.102,168.981,134.701z M191.031,149.033
		c-4.811,0.201-9.521-1.403-13.831-3.607c-3.308-1.604-7.016-4.31-4.911-7.918c0.902-1.604,2.005,1.103,2.906,2.405
		c3.809,5.713,10.624,5.312,16.137,8.218C191.531,148.231,191.531,149.033,191.031,149.033z M125.885,74.567
		c-0.602-1.103,0.101-2.105,0.701-2.907c0.102-0.201,0.501-0.1,0.702-0.1c-0.101,0.1-0.101,0.1-0.201,0.2
		c3.309,0.2,4.812-0.501,8.02-0.601c0.399,0,2.104,0.902,2.405,0.902c-0.702,2.004-0.803,4.811-1.004,6.815
		c-0.399,3.608-0.3,7.116,0.302,10.825c0.4,2.906-0.4,5.712-0.302,8.619c-0.1,0-0.3,0-0.3,0.1c-0.4,2.205,0,0-1.203,2.004
		c-0.301,0.602-1.203,0.702-1.804,0.501c-0.902-0.401-1.704-1.503-1.403-2.505c1.202-4.31,2.004-4.009,1.503-8.419
		c-0.199-1.604-1.201-3.207-2.505-4.209c-0.4-0.3-0.901-0.702-1.103-1.203c-1.002-2.205,0-4.811-0.902-7.016
		C128.19,76.271,126.586,75.77,125.885,74.567z M127.388,103.832c-0.101-0.201-0.101-0.902,0-0.902
		c1.559-0.623,3.179-0.581,4.811-0.53c0.468,0.014,0.935,0.029,1.403,0.029h-1.403c2.205,0.301,4.511-0.702,6.615,0.501
		c0.101,0.101,0.2,0.702,0,0.902c-1.604,1.704-3.908,0.401-5.913,0.902C131.096,105.135,128.892,105.636,127.388,103.832z
		 M134.404,115.458c1.805-0.501,1.504-2.505,2.306-3.308c1.503-1.503,2.605,1.103,2.906,2.506c0.603,2.806-2.605,3.407-4.911,2.606
		C134.103,117.062,133.502,115.759,134.404,115.458z M138.713,131.594c-0.399,0.401-1.604,0.2-1.903-0.602
		c-0.2-0.601,0.301-1.303,0.602-1.203C138.412,129.79,139.515,130.592,138.713,131.594z M137.41,137.507
		c-0.701,0.301-1.403-0.301-2.004-0.702c-0.201-0.1-0.101-0.702,0-0.902c1.303-0.802,2.706-1.303,4.108-1.804
		c0.301,0,0.602,0,0.701,0.1C141.419,135.904,138.814,137.006,137.41,137.507z M139.515,144.022c-0.4,0-1.402-0.702-0.901-1.503
		c0.501-0.702,1.503-0.702,2.305-1.103c0.102-0.1,0-0.602,0-0.602c0.902-0.3,1.904,0,2.808,0.301
		C143.123,142.819,141.219,144.122,139.515,144.022z M217.088,173.388c1.704-0.602,3.309-0.802,4.911-1.504
		c10.323-4.009,11.827-6.414,14.032-7.016c0.701-0.2,4.009,3.608,3.106,4.109c-4.61,2.205-8.019,3.809-15.436,6.615
		c-6.915,2.606-9.822,2.606-17.139,2.205c-0.701,0-2.306-1.002-4.91-1.303c-1.003-0.1-2.807-0.602-2.105-1.002
		C204.961,172.285,211.375,175.392,217.088,173.388z M209.773,190.125c-1.704,1.002-3.81,0.702-5.412,0.1
		c-2.406-0.902-2.005-4.31-3.007-6.615c-0.201-0.702-1.104-1.002-1.704-1.303c-1.704-0.802-3.909-0.802-5.111-2.606
		c0.501,0,0.902,0.3,1.403,0.3c5.211,0.501,10.423,1.002,15.635,0.802C211.075,183.811,213.18,188.221,209.773,190.125z
		 M218.091,144.022c1.202-0.601,2.506-1.704,3.708-2.305c0.902-0.501,1.806-1.804,3.008-1.303c1.804,0.802,2.306,3.407,1.201,4.209
		c-4.009,3.207-8.719,4.31-13.729,5.513c-5.211,1.202-16.136,1.904-15.635-2.406c0.932,0,2.324,0.231,3.607,0.406
		c0.417,0.057,0.822,0.108,1.197,0.145l0.478-0.029C207.71,147.876,212.692,146.493,218.091,144.022z M204.961,117.462
		c1.504-1.503-0.9-2.505-0.1-3.207c2.104-1.704,4.009,3.408,2.906,5.011c-1.704,2.505-5.412,1.403-8.318,1.103
		c-0.902-0.101-1.604-1.704-0.702-2.005c1.904-0.701,4.109-0.1,6.214-0.301C204.961,118.063,204.862,117.562,204.961,117.462z
		 M202.156,128.587v1.403c0.075-0.277,0.125-0.559,0.158-0.841c0.227-1.962-0.396-4.009,0.743-5.673
		c0.502-0.702,2.005-0.802,2.906-0.702c0.501,0.1,0.901,1.103,0.901,1.604c0.301,3.408,1.904,7.316-0.2,9.722
		c-2.104,2.506-7.116,1.403-10.724,0.501c-1.203-0.3-1.504-2.605-0.603-3.006C197.545,130.692,199.95,129.79,202.156,128.587z
		 M193.535,74.065c-0.3-0.1-1.102-0.802-0.701-1.503c0.102-0.101,0.401,0,0.701,0l-0.399,1.002c0.131-0.089,0.263-0.168,0.396-0.24
		c2.127-1.139,4.657-0.214,6.92-1.062c0.902-0.401,1.303-1.504,2.405-1.504c-0.2-0.902,0.901-1.002,1.002-1.703
		c0.301-1.203-0.2-2.306-0.3-3.508c4.408,0.101,8.419,4.911,7.016,8.92c-0.502,1.403-1.403,2.606-2.707,3.809
		c-1.503,1.403-1.903,3.708-2.405,5.813c-1.201,4.811,2.506,9.021,1.806,13.831c-0.302,1.704-0.603,3.307-2.005,4.51
		c-0.901,0.702-2.104,0.702-3.008,0.201c-2.004-0.902-4.811,0.501-6.014-2.305c2.807-0.602,5.513-1.704,6.515-4.51
		c1.104-2.807,0.902-5.813,0.201-8.62c-0.901-3.608,0.501-7.517-1.504-10.223C199.85,74.967,196.241,75.168,193.535,74.065z
		 M192.533,153.744c0.301-0.301,1.104,0,1.604-0.201c5.513-1.503,11.023,2.005,16.035-0.301c0.701,3.007,0.803,6.114,0.102,9.021
		c-0.603,2.605-4.61,4.209-6.815,2.506c-3.106-2.406-3.406-7.016-6.916-9.221c-0.802-0.501-2.004-0.501-3.007-0.702
		C193.034,154.846,191.933,154.345,192.533,153.744z M149.036,153.744c-0.2-0.1-1.002-0.201-1.103-0.802
		c-0.2-1.503,0.701-3.208,2.404-3.107c-0.199-0.2-0.501-0.301-0.7-0.401c1.402-0.301,2.905-1.303,3.809-0.902
		C154.649,149.233,150.54,154.445,149.036,153.744z M159.259,158.053c-0.1,0.201-0.7,0.601-0.802,0.802
		c-0.501,1.704-1.402,2.606-2.604,3.208c-1.203,0.601-2.405-1.203-2.005-2.506c0.2-0.401,0.602-0.702,1.003-1.103
		c1.804-1.403,3.406-5.011,5.412-2.906C160.562,155.948,159.56,157.151,159.259,158.053z M160.562,164.668
		c-0.4-1.103,0.502-1.804,1.604-2.004h-1.003c1.904-1.704,3.408-5.111,6.214-4.911c-1.402,3.007-2.004,6.314-4.009,8.92
		C162.266,168.076,160.963,165.971,160.562,164.668z M191.732,175.793c-12.327-1.103-16.336-3.208-23.854-6.715
		c-0.701-0.3-1.904-1.303-1.704-2.205c0.2-0.702,1.604-1.103,2.405-0.702c2.305,1.403,8.92,6.214,20.546,7.917
		c0.901,0.101,3.81,0.201,3.908,0.802C193.135,175.392,192.133,175.793,191.732,175.793z M100.929,98.32
		c3.809-2.305,2.905-7.417,4.21-11.125c0.055-0.055,0.172-0.049,0.313-0.033c0.305-0.879,0.894-1.381,1.288-2.171
		c1.403-2.306,0.101-4.51-1.102-6.415c-0.804-1.303-2.706-1.403-3.608-2.606c-0.902-1.303,0.602-2.205,1.403-2.405
		c2.305-0.802,3.708-1.904,5.312-3.608c0.702-0.601,1.403,0.902,1.203,1.905c0-0.101,0-0.301,0-0.401
		c-0.702,2.406-1.403,4.71-1.003,7.317c1.403,7.417-0.2,14.432-0.701,21.548C105.84,100.825,101.03,102.229,100.929,98.32z
		 M104.035,115.157c0.902-1.303,2.907-2.004,4.41-3.207c1.704-1.303,0.802-4.209,2.306-5.913c0.302-0.501,0.803,0.3,1.304,0.2
		c-0.102,2.906,0.9,6.114-0.302,8.619c-0.756,1.429-2.85,1.94-4.806,1.95c0.075,0.075,0.141,0.159,0.195,0.255l-1.304-0.301
		c0.161,0.015,0.327,0.026,0.494,0.033c0.202,0.009,0.406,0.014,0.613,0.013C105.911,115.783,103.102,116.559,104.035,115.157z
		 M107.143,135.202c0.702,0.2,0.602-1.203,1.402-0.701c-0.199-2.606,2.004-1.704,2.405-3.208c0.401-1.403-1.002-2.205-2.005-2.807
		c-0.2-0.1,0.101-0.501,0.301-0.601c1.002-0.201,2.105,0,2.706,0.702c0.301,0.401,1.002,0.702,0.802,1.403
		c1.305,0,1.203,1.403,1.504,2.104c1.104,2.606,0,6.415-3.308,6.815c0,0-0.101-0.701-0.301-0.902
		C109.148,137.006,106.842,137.507,107.143,135.202z M109.949,148.031c0.3-0.301-0.201-0.802,0.1-1.002
		c2.906-1.704,6.015-2.605,9.021-4.41c0.501-0.301,1.503-0.601,2.005,0.2c0.3,0.602,0,1.303-0.401,1.704
		C118.068,147.329,113.557,150.436,109.949,148.031z M117.365,160.559c-0.4-0.101-1.604-0.702-2.104-1.403
		c-0.502-0.802,0.199-1.403,1.002-1.604c1.003-0.301,2.104,0.1,3.106-0.201c0.902-0.401,1.303-1.002,2.205-1.503
		c0.802-0.401,1.604-1.103,2.706-1.203c0,0.401,0.601,0.601,0.301,1.002C122.477,158.053,120.573,161.561,117.365,160.559z
		 M119.972,165.27c-0.702-1.002,1.401-1.704,2.404-2.205c1.503-0.602,3.006-1.704,4.61-2.505c0.2,1.102-0.301,2.205-0.802,3.106
		c-0.702,1.303-1.904,1.804-3.107,2.706C121.776,167.274,120.573,166.071,119.972,165.27z M133,172.585
		c-1.102,0.602-1.102,2.606-2.505,3.208c-1.303,0.501-1.504-1.002-2.306-1.704c-0.2-0.1,0.101-0.601,0.2-1.002
		c-1.304,0.401-2.104-0.4-2.705-1.403c-0.401-0.802,0.199-1.303,0.7-1.604c0.902-0.401,2.405,0.201,3.008-0.902
		c0.199-0.4-0.102-1.303,0.199-1.503c0.603-0.702,2.005-1.002,2.507-0.1c0.7,1.303,1.903,1.603,2.807,2.505
		c0.3,0.301,0.3,1.203,0,1.503C134.504,172.084,133.602,172.385,133,172.585z M139.515,184.111c-1.805,0.1-3.607-1.303-4.409-3.006
		c-0.401-0.902,0.1-1.503,0.9-2.205c0.302-0.301,0-1.002,0.102-1.604c0.101-0.601,0.802-0.2,1.002-0.701
		c0.2-0.501,0.2-1.002,0.602-1.503c1.104-1.002,2.205-0.602,2.807,0.2c0.502,0.702-0.701,2.105,0.201,2.506
		c2.604,1.002,3.907-2.405,5.912-3.809c0.603-0.401,1.805,0.902,1.104,1.804C145.228,179,144.125,183.811,139.515,184.111z
		 M149.739,190.827c0.1,0.902-1.504,0.401-2.105,0.2c-1.804-0.602-4.31-1.904-4.209-4.009c0.701,0,1.104-0.701,1.202-1.102
		c0.401-2.105,1.203-4.109,2.907-4.109c2.706,0,7.616-4.009,7.316,0C154.549,185.214,149.437,186.617,149.739,190.827z
		 M184.817,203.555c-8.619-1.403-17.139-2.004-24.956-5.913c-2.405-1.203-4.51-2.906-6.715-4.31l1.002,0.602
		c-0.071-0.144-0.204-0.259-0.36-0.358c-0.146-0.092-0.312-0.17-0.463-0.244c-0.366-0.178-0.649-0.331-0.379-0.602
		c1.503-1.904,1.503-4.41,3.407-5.913c0.2-0.2,0.901-0.802,1.203-0.401c1.503,1.704,1.604,3.909,2.905,5.813
		c0.701,0.802,1.503,1.503,2.405,2.005c5.612,3.307,11.525,4.71,17.84,6.113c3.608,0.802,7.316-0.2,11.024,0.802
		c1.402,0.301,3.007,0,4.108,1.203c0.4,0.401-0.501,0.602-0.301,1.002C191.933,203.154,188.425,204.056,184.817,203.555z
		 M197.244,269.803c0,0.301-0.501,0.701-0.602,0.603c-1.002-0.302-2.205-0.302-3.107-0.501c-1.603-0.502-0.601-3.407-0.701-5.312
		c0-0.4,0.301-0.803,0.701-1.003c1.203-0.7,2.606-0.601,3.31,0.401c0.92,1.381,0.666,2.938,0.36,4.447
		C197.258,268.576,197.286,269.02,197.244,269.803z M204.66,274.714c-2.305,0-2.405-2.405-3.508-3.809
		c-0.3-0.3-0.901,0.501-1.103-0.401c-0.4-2.505-0.701-4.91,0.2-7.216c0.603-1.304,2.706-1.704,3.508-0.3
		C205.864,266.496,204.26,270.807,204.66,274.714z M211.676,277.42c-1.102-1.504-2.704-2.205-3.907-3.406v1.103
		c-0.2-4.41-0.603-7.218-0.2-10.824c0.1-0.901,0.601-1.704,1.604-2.005c1.403-0.401,3.106,0.102,3.309,1.402
		c1.002,5.312,1.303,9.422,2.205,14.132C213.881,278.021,212.178,277.921,211.676,277.42z M219.594,258.777
		c1.002,0.201,1.504,1.203,2.005,2.104c3.308,5.613,4.71,11.626,6.715,17.64c-2.906,0.701-5.813,0.701-8.72,0.602
		c-0.603-0.1-1.202-0.9-1.304-1.604c-0.901-3.607-2.005-8.92-3.407-14.633c-0.199-0.701,0.901-3.207,1.805-3.607
		C217.69,258.777,218.491,258.578,219.594,258.777z M217.189,254.869c-2.405-0.4-5.612,1.104-7.216-0.801
		c-0.603-0.702,1.201-1.705,0.501-2.606c-0.603-0.603-1.806-1.303-2.104-0.603c-0.702,1.104,0.2,3.209-0.502,4.211
		c-0.901,1.103-4.108,1.103-4.609-0.902c1.604-0.4,3.607-0.802,2.906-2.706c-0.501-1.202-2.205-2.005-4.009-1.804
		c0.2,1.804,0.2,3.708-0.501,5.111c-0.702,1.303-2.406,0-3.608,0.1c0-0.602,0-1.102,0-1.703c1.202,0.301,2.507-0.201,2.006-1.805
		c-0.603-2.004-2.105-4.209-3.909-2.807c-1.904,1.403,0,4.911-2.104,6.516c-0.901,0.602-2.405,0.501-3.308-0.603
		c-0.102-0.2-0.102-0.7,0-0.901c0.701-0.902,1.904-0.502,2.706-0.902c1.503-0.801,0.901-3.006,0.901-4.409
		c0-0.802-1.704-1.403-2.506-0.902c-0.4,0.3-1.303,0.401-1.103,1.303c-1.403-1.805-0.902-4.711,0.301-5.513
		c2.605-1.804,6.314-0.702,9.521,0.2c4.91,1.303,10.122,0,15.233,0.702C215.686,247.754,215.585,251.562,217.189,254.869z
		 M193.836,223.6c0.102,0.602,1.704,0.501,0.902,1.203c-0.501,0.501-1.604,1.104-2.205,0.1
		C192.032,224.001,193.236,223.8,193.836,223.6z M217.088,236.027c2.507,0.401,5.412,3.007,3.909,5.412
		c-0.4,0.702-2.005-0.3-3.105-0.401c-1.806,0-3.51,1.002-5.312,1.103c-0.447,0.056-0.646-0.512-0.942-0.973l-1.062-0.53
		c0.223-0.056,0.404-0.036,0.557,0.033c-1.758-1.576-3.362-3.965-5.268-2.839c-1.303,0.702-2.706,1.103-4.009,0.602
		c-0.301-0.1-0.702-0.902-0.301-1.203c1.002-0.702,1.103-2.205,2.404-2.505c3.007-0.802,5.813,0.301,8.419,1.804
		C213.781,237.431,215.585,235.727,217.088,236.027z M215.987,216.584c-0.301,1.103-0.702,2.706-2.005,2.806
		c-2.104,0.201-1.002,3.809-2.205,4.611c-2.706,1.603-6.113,0.901-9.221,1.002c0-0.401-0.102-0.902,0-1.002
		c1.903-1.103,1.903-2.707,1.202-4.209c-0.301-0.702-1.703-0.602-2.104,0c-1.103,1.603,0.1,4.009-1.103,5.312
		c-0.401,0.602-1.806,0.401-2.907,0.1c-0.901-0.2-1.604-1.202-0.901-1.804c0.4-0.501,1.604,0.101,2.204-0.3
		c0.301-0.201,0.101-1.002,0.101-1.604c0,0.2-0.101,0.501-0.101,0.301c-0.2-1.403-1.102-2.706-2.605-2.306
		c-0.802,0.201-1.303,1.303-2.204,1.604c-0.101-1.503-1.403-2.406-2.706-2.706c-0.2,1.203-1.604,0.802-2.004,0.501
		c-1.203-0.702,0.301-1.904-0.102-3.007c6.214-1.002,12.428,0.702,18.742-0.802c0.301-0.1,0.501-0.902,0.802-1.203
		c0.701-0.602,1.303-1.403,2.405-1.403c-0.2-1.102,0.802-1.303,1.403-1.704c0.7-0.501,1.903,0,2.204,0.401
		C215.987,212.675,216.488,214.68,215.987,216.584z M250.162,192.229c-0.501,3.608-4.911,4.41-8.018,5.312
		c-7.719,2.405-15.334,4.009-23.354,6.013c-4.163,0.946-8.415,1.624-12.672,1.275c-0.253-0.021-0.506-0.044-0.758-0.072l2.405,0.401
		c-1.704,0.1-3.309-0.602-4.812-1.203c-0.101,0-0.101-0.501,0-0.501c3.607-1.503,7.518-0.801,11.425-1.403
		c5.312-0.902,10.225-2.505,15.234-4.209c2.605-0.802,4.811-2.806,7.417-4.109c0.601-0.301,1.503-0.1,2.004-0.501
		c2.306-2.205,5.312-2.506,8.118-3.608C248.96,188.822,250.363,191.228,250.162,192.229z M258.481,189.022
		c-0.501,1.503-1.703,3.308-3.308,2.706c-3.208-1.103-4.009-4.61-6.014-7.216c-0.2-0.2,0.1-0.501,0.4-0.601
		c0.301-0.101,0.702-0.101,1.003,0c0.802,0.501,0.701,1.904,2.104,2.104c1.904,0.301,0.802-1.704,1.503-2.305
		c0.501-0.401,1.003,0.802,1.904,1.103C257.679,185.314,259.082,187.319,258.481,189.022z M267.388,182.082
		c-0.016,0.137-0.042,0.279-0.088,0.426l-0.4-1.103c-0.101,1.804-1.303,3.106-1.604,4.911c-0.199,0.902-1.903,0.501-2.404,0.2
		c-2.706-2.205-3.909-5.512-6.113-8.218c0.701,0,1.604-0.201,2.004,0.101c2.306,2.205,5.111,0.601,7.316,1.603
		C266.72,180.269,267.5,181.009,267.388,182.082z M280.631,170.08c-0.701,0.802-1.202,3.107-2.506,2.505
		c-1.903-1.002-2.807-2.906-4.511-4.41c-0.4-0.401,0.401-0.802,0.602-0.902c1.304-0.301,2.808,1.102,3.709-0.201
		c0.701-1.002-0.803-2.605,0.2-3.608c0.4-0.401,1.104,0.1,1.703,0.2c0-0.1,0-0.2,0-0.3c1.504,0.902,3.608,2.205,3.509,3.809
		C283.237,168.276,281.633,169.178,280.631,170.08z M287.346,160.458c-0.201,0.101-0.302,1.103-0.902,0.501
		c-0.603,1.203-0.102,2.807-1.403,3.809c-0.301-0.702-0.9-1.002-1.202-1.704c-0.4-0.702-1.202-1.303-2.306-1.604
		c-1.202-0.301-1.303-1.904-2.405-2.606c1.704-2.105,5.412-1.103,7.918-0.601C288.148,158.354,288.047,160.058,287.346,160.458z
		 M291.154,149.734c-1.303,2.005-3.708,2.506-5.712,1.303c-0.603-0.401-1.805-0.501-1.805-1.604c0-0.501-0.2-1.103,0.101-1.303
		c1.303-1.303,3.308,0.401,4.71-0.802c0.201-0.2,0.201-0.802,0-1.002c-0.901-1.002-3.708-2.405-2.204-3.006
		C289.05,142.218,293.059,146.527,291.154,149.734z M297.468,140.614c-0.7,1.804-3.308,2.405-5.912,1.704
		c-1.503-0.501-2.706-1.904-1.805-2.806c1.002-0.802,3.007-1.704,2.104-3.207c-0.301-0.501-0.2-1.303-0.902-1.503
		c-0.701-0.1-1.604,0.501-2.104-0.401c-0.102-0.201-0.102-0.802,0-0.902c3.207-0.802,6.112,0.501,8.219,2.807
		C298.17,137.507,297.869,139.612,297.468,140.614z M300.475,125.38c-1.003,1.904-2.605,3.106-3.107,5.612
		c-0.1,0.401-1.102,1.103-1.804,0.602c-1.804-1.303-4.209-0.902-5.612-2.406c-0.2-0.3-0.701-1.102-0.399-1.203
		c2.104-0.4,4.51,0.501,6.013-0.702c1.203-0.902,1.103-3.106,2.405-4.209c0.301-0.201,0.802-0.101,1.303-0.101
		c0.401,0,0.802-0.1,1.003,0.101C301.177,123.676,300.776,124.779,300.475,125.38z M301.076,117.262
		c-2.605-0.1-4.911-1.704-7.718-1.804c-0.602,0-1.904-0.401-1.703-1.503c0.1-0.2,0.3-0.602,0.4-0.602
		c2.104-1.102,4.21,0.301,6.515-0.1c1.604-0.3,2.405,1.002,3.007,2.104C301.978,116.059,301.677,117.262,301.076,117.262z
		 M301.978,111.048c-0.4,0.702-1.303-0.301-1.503-0.401c-1.704-1.503-4.109-1.002-6.015-2.305c-0.802-0.501-1.703-2.005-0.7-2.105
		c2.204-0.2,3.606-1.503,5.913-1.704c-0.201,0.201-0.302,0.501-0.401,0.702c1.304-0.602,1.604-1.904,2.205-3.107
		c0.401-0.802,1.403-0.301,1.403,0C303.382,105.135,303.382,108.342,301.978,111.048z M303.08,100.023
		c-1.702,0.401-4.009,1.303-4.811,0.101c-1.304-1.905,2.405-0.702,3.809-0.702c0.501-0.1,0.902-1.002,1.304-0.401
		C303.682,99.322,303.581,99.823,303.08,100.023z M304.384,72.863c-1.503,4.61-5.012,9.321-3.207,14.232
		c1.103,2.806,2.906,6.314,1.203,8.82c-1.203,1.804-3.81,2.405-6.215,0.902c-0.602-0.301-0.501-1.103-0.301-1.604
		c1.103-2.104,4.009-3.508,2.808-6.314c-1.305-3.007-0.603-6.314-1.604-8.92c-1.003-2.706-5.012-4.109-5.813-7.216
		c-1.201-5.212,6.414-4.41,10.124-3.809C302.981,69.155,305.185,70.658,304.384,72.863z"/>
</g>
<path id="path35" fill="#428ECE" d="M261.844,335.639l0.01,0.004h0.001c0.062,0.031,0.129,0.068,0.192,0.107
	c0.06,0.034,0.123,0.076,0.19,0.121c0.375,0.251,0.702,0.604,0.702,0.781l0,0l0.001,0.055v0.002
	c0.021,0.896-0.207,1.839-0.434,2.777c-0.445,1.854-0.89,3.695,0.867,4.785l0.011,0.008c1.027,0.686,2.325,0.594,3.596,0.504
	c0.446-0.031,0.891-0.062,1.321-0.062h0.005v0.002c0.99-0.002,2.062-0.248,3.066-0.703c0.247-0.11,0.489-0.234,0.723-0.369
	c1.199-0.692,2.231-1.696,2.804-2.936l0.636,0.294c-0.635,1.378-1.771,2.485-3.089,3.247c-0.256,0.146-0.52,0.282-0.784,0.402
	c-1.091,0.494-2.264,0.762-3.354,0.763v0.001h-0.005c-0.415,0-0.843,0.03-1.271,0.061c-1.382,0.099-2.796,0.199-4.024-0.614l0,0
	c-2.186-1.354-1.684-3.438-1.178-5.543c0.215-0.894,0.432-1.789,0.413-2.599l-0.002-0.063l-0.001-0.01
	c0-0.034-0.182-0.062-0.39-0.201c-0.048-0.03-0.101-0.063-0.158-0.099l-0.001-0.002c-0.05-0.029-0.103-0.059-0.15-0.084l0,0
	l-0.009-0.004L261.844,335.639z M236.364,338.008c0.386,0.035,0.717,0.07,1.042,0.105c1.787,0.189,3.535,0.377,5.745-0.193v-0.001
	l0.012-0.003c0.188-0.055,0.374-0.118,0.558-0.191c0.184-0.074,0.367-0.16,0.549-0.254c0.892-0.473,1.654-1.176,1.845-1.998
	l0.006-0.021c0.119-0.406,0.206-0.857,0.292-1.309c0.281-1.463,0.562-2.929,2.017-3.526h0.002c1.311-0.536,2.339,0.146,3.418,0.86
	c0.878,0.584,1.798,1.192,2.872,1.021l0.108,0.691c-1.345,0.215-2.38-0.473-3.369-1.129c-0.921-0.61-1.799-1.193-2.767-0.799v0.002
	c-1.103,0.452-1.348,1.731-1.593,3.012c-0.088,0.459-0.178,0.922-0.308,1.363c-0.244,1.041-1.148,1.896-2.199,2.449
	c-0.198,0.105-0.404,0.201-0.612,0.284c-0.21,0.085-0.421,0.157-0.626,0.217l-0.012,0.004l-0.009,0.001
	c-2.339,0.605-4.149,0.413-6.002,0.215c-0.358-0.037-0.72-0.076-1.032-0.104L236.364,338.008z M251.544,335.859
	c-0.281,0.377-0.563,0.799-0.698,1.203c-0.115,0.347-0.121,0.688,0.095,0.979l0.001-0.001l0.008,0.011l-0.001,0.001
	c0.204,0.261,0.447,0.507,0.685,0.747c0.569,0.577,1.116,1.133,1.276,1.985h0.001c0.015,0.065,0.028,0.132,0.039,0.194v0.002
	c0.205,1.123-0.047,2.148-0.629,2.955c-0.576,0.801-1.476,1.385-2.572,1.633l0,0h-0.002c-0.063,0.017-0.138,0.029-0.22,0.046l0,0
	c-1.649,0.31-3.22,0.259-4.748-0.011c-1.515-0.268-2.989-0.752-4.46-1.31l-1.788-0.679h1.911h0.4v0.128
	c1.342,0.499,2.687,0.927,4.058,1.169c1.453,0.256,2.939,0.305,4.498,0.014h0.003c0.056-0.01,0.12-0.023,0.19-0.039h0.002
	c0.928-0.211,1.683-0.695,2.16-1.359c0.474-0.655,0.677-1.495,0.509-2.422l0,0c-0.011-0.057-0.021-0.112-0.034-0.168l-0.003-0.016
	c-0.117-0.646-0.596-1.131-1.092-1.633c-0.248-0.252-0.503-0.51-0.735-0.811h-0.001l-0.009-0.01l-0.004-0.007
	c-0.382-0.509-0.387-1.067-0.201-1.621c0.165-0.495,0.484-0.979,0.804-1.403L251.544,335.859z M261.738,332.096
	c0.831,0.119,1.655-0.215,2.455-0.541c1.153-0.467,2.266-0.918,3.479-0.219l0,0c1.404,0.786,1.771,2.016,1.618,3.327
	c-0.112,0.962-0.517,1.964-0.981,2.849c0.294-0.062,0.591-0.113,0.885-0.166c1.083-0.191,2.155-0.383,2.884-1.051l0.006-0.006
	c0.287-0.252,0.58-0.462,0.868-0.668l0,0c0.517-0.37,1.019-0.729,1.376-1.268l0.581,0.389c-0.432,0.646-0.981,1.043-1.55,1.449
	h-0.001c-0.274,0.195-0.555,0.396-0.814,0.623h-0.001c-0.881,0.805-2.048,1.012-3.229,1.222c-0.538,0.096-1.081,0.19-1.569,0.341
	v0.001l-0.038,0.013l-0.877,0.273l0.474-0.788c0.58-0.968,1.161-2.175,1.293-3.293c0.122-1.044-0.164-2.021-1.265-2.636
	l-0.005-0.004c-0.918-0.531-1.876-0.143-2.869,0.262c-0.886,0.359-1.799,0.73-2.816,0.585L261.738,332.096z"/>
<path id="path39" fill="#428ECE" d="M245.599,306.73c-1.561-0.244-3.103-0.17-4.621,0.1c-1.53,0.271-3.041,0.742-4.525,1.286
	l-0.241-0.657c1.521-0.557,3.069-1.039,4.646-1.318c1.586-0.281,3.202-0.357,4.849-0.102L245.599,306.73z M236.361,304.632
	l0.028,0.003c0.146,0.01,0.3,0.01,0.45-0.003c0.153-0.012,0.307-0.036,0.451-0.069c0.739-0.168,1.39-0.586,1.628-1.125l0.007-0.016
	c0.13-0.26,0.164-0.482,0.129-0.666c-0.04-0.199-0.172-0.367-0.357-0.5c-0.214-0.152-0.499-0.258-0.815-0.312
	c-0.595-0.106-1.272-0.032-1.785,0.24l-0.329-0.617c0.653-0.349,1.504-0.444,2.235-0.313c0.413,0.072,0.799,0.22,1.101,0.435
	c0.329,0.232,0.562,0.545,0.64,0.934c0.064,0.324,0.017,0.695-0.185,1.102h0.001l-0.003,0.004l-0.004,0.011h-0.001
	c-0.337,0.739-1.171,1.298-2.104,1.511c-0.183,0.042-0.369,0.07-0.553,0.087c-0.187,0.015-0.375,0.017-0.562,0.002h-0.003
	l-0.027-0.002L236.361,304.632z M252.172,308.826l-0.02-0.006l0,0c-0.4-0.111-0.826-0.217-1.25-0.322
	c-2.193-0.544-4.397-1.092-5.641-3.12c-0.082-0.12-0.162-0.247-0.239-0.38l0,0c-0.662-1.135-1.04-2.561-0.981-3.889
	c0.01-0.235,0.035-0.467,0.074-0.695c-0.175-0.042-0.354-0.091-0.536-0.145h-0.001c-0.325-0.099-0.658-0.215-0.983-0.353h-0.002
	c-1.547-0.647-2.965-1.746-3.18-3.396c-0.303,0.15-0.615,0.295-0.932,0.438c-1.484,0.674-3.067,1.392-3.626,2.929l-0.657-0.238
	c0.66-1.814,2.382-2.597,3.995-3.328c0.482-0.219,0.957-0.434,1.368-0.662l0.007-0.004l0.545-0.303l-0.024,0.621
	c-0.063,1.6,1.287,2.672,2.774,3.297l0,0c0.302,0.127,0.611,0.235,0.915,0.326l0,0c0.168,0.051,0.336,0.096,0.502,0.135
	c0.26-0.812,0.735-1.525,1.473-2.027c0.071-0.049,0.146-0.096,0.226-0.143l0.018-0.011l0.014-0.006l0.015-0.006
	c0.167-0.075,0.35-0.146,0.541-0.205h0.002c0.191-0.06,0.394-0.108,0.597-0.147c1.085-0.203,2.335-0.082,3.148,0.729l0.004,0.004
	l-0.001,0.001c0.249,0.237,0.485,0.505,0.702,0.794c0.217,0.291,0.414,0.606,0.587,0.938c0.893,1.723,1.113,3.896-0.054,5.529
	l-0.569-0.406c0.996-1.395,0.787-3.287,0.001-4.803c-0.154-0.297-0.332-0.58-0.526-0.842c-0.191-0.26-0.404-0.498-0.628-0.709
	l-0.009-0.008l-0.004-0.004c-0.622-0.622-1.632-0.704-2.522-0.538c-0.181,0.034-0.355,0.078-0.519,0.128v0.001
	c-0.164,0.051-0.319,0.11-0.462,0.174l-0.004,0.002c-0.054,0.032-0.106,0.066-0.159,0.103c-0.932,0.635-1.356,1.701-1.407,2.857
	c-0.053,1.193,0.289,2.479,0.887,3.504v0.002c0.067,0.114,0.14,0.229,0.214,0.338l0.011,0.017c1.093,1.795,3.161,2.309,5.219,2.817
	c0.421,0.104,0.842,0.209,1.271,0.328h0.003l0.02,0.006L252.172,308.826z M248.042,301.271c0.269,0.373,0.483,0.726,0.62,1.096l0,0
	c0.145,0.39,0.201,0.795,0.146,1.254l-0.696-0.085c0.043-0.341,0-0.64-0.105-0.927l0,0c-0.113-0.305-0.3-0.607-0.532-0.935
	L248.042,301.271z"/>
<g>
	<path fill="#428ECE" d="M216.012,338.293c-0.486-0.422-1.081-0.732-1.72-0.893c-0.71-0.178-1.474-0.166-2.202,0.084l-0.009,0.004
		c-1.011,0.318-1.188,1.414-1.36,2.492c-0.112,0.699-0.225,1.392-0.541,1.951l-0.003,0.006c-0.381,0.664-1.213,0.455-2.138,0.221
		v-0.001c-0.33-0.083-0.677-0.173-0.997-0.218c-0.039,0.246-0.088,0.479-0.137,0.701l-0.003,0.014l-0.007,0.021
		c-0.174,0.521-0.408,0.99-0.69,1.413c1.948,1.419,4.029,1.625,5.911,1.048c0.372-0.113,0.743-0.263,1.105-0.438
		c0.364-0.179,0.717-0.382,1.049-0.607l0.004-0.002l0.016-0.01l0.024-0.017c0.235-0.129,0.463-0.235,0.691-0.346
		c0.896-0.428,1.86-0.888,2.144-1.939c0.173-0.691,0.129-1.35-0.072-1.934C216.87,339.241,216.494,338.711,216.012,338.293z"/>
	<path fill="#428ECE" d="M189.872,336.422c-0.191,0.029-0.388,0.066-0.585,0.111c0.101,0.146,0.221,0.305,0.388,0.473
		c0.259,0.258,0.346,0.502,0.416,0.707v0.001c0.039,0.11,0.067,0.19,0.237,0.19l0.029,0.002c0.935,0.078,1.473,0.558,2.001,1.027
		c0.13,0.115,0.26,0.229,0.392,0.334c0.287-0.36,0.642-0.621,1.037-0.804l0.001-0.001c0.369-0.167,0.774-0.263,1.193-0.302
		c-1.006-1.097-2.392-1.789-4.04-1.813C190.601,336.344,190.243,336.367,189.872,336.422z"/>
	<path fill="#428ECE" d="M265.698,318.412v-37.283H136.909v37.283h-23.252v41.393h174.991v-41.393H265.698z M210.244,306.218
		c0.616-1.186,1.294-2.487,2.735-2.487v-0.002c0.761,0,1.413,0.338,2.091,0.689c0.477,0.247,0.969,0.502,1.495,0.623l-0.156,0.684
		c-0.611-0.142-1.144-0.418-1.659-0.685c-0.601-0.312-1.177-0.61-1.771-0.61c-1.016,0-1.59,1.105-2.113,2.111h-0.002
		c-0.132,0.253-0.262,0.503-0.389,0.721l-0.605-0.352C209.999,306.689,210.121,306.455,210.244,306.218L210.244,306.218z
		 M215.536,301.559c-0.788-0.232-1.407-0.658-1.594-1.401l-0.066-0.232c-0.349-1.233-0.668-2.36-1.761-2.95
		c-0.387-0.166-0.825-0.207-1.291-0.175c-0.5,0.036-1.026,0.156-1.552,0.3c-0.849,0.283-1.55,0.825-2.268,1.377
		c-0.493,0.383-0.997,0.771-1.57,1.099l-0.007,0.004c-2.041,1.099-4.181,1.153-6.275,0.633c-2.058-0.511-4.067-1.579-5.896-2.745
		c-0.675-0.406-1.491-0.715-2.273-0.751v-0.001c-0.149-0.006-0.297-0.003-0.438,0.01c-0.138,0.015-0.276,0.039-0.416,0.076V296.8
		l-0.004,0.001h0.001c-0.693,0.199-1.197,0.805-1.699,1.408c-0.428,0.516-0.855,1.031-1.429,1.364l-0.009,0.005l-0.025,0.012
		c-0.465,0.207-1.02,0.229-1.587,0.248c-0.614,0.023-1.251,0.047-1.667,0.324l-0.011,0.009c-0.56,0.345-0.606,1.054-0.649,1.729
		c-0.046,0.705-0.09,1.384-0.604,1.842l-0.016,0.011c-0.269,0.214-0.596,0.44-0.922,0.666c-0.323,0.226-0.649,0.451-0.883,0.637
		l-0.015,0.013c-0.254,0.182-0.366,0.52-0.406,0.902c-0.046,0.441,0.002,0.946,0.05,1.381l-0.694,0.076
		c-0.053-0.469-0.104-1.017-0.052-1.527c0.061-0.565,0.249-1.082,0.696-1.401c0.267-0.211,0.586-0.433,0.906-0.654
		c0.316-0.219,0.637-0.44,0.869-0.625h-0.001c0.3-0.267,0.335-0.805,0.371-1.362c0.055-0.854,0.112-1.748,0.98-2.282v0.001
		c0.581-0.381,1.312-0.408,2.021-0.436c0.488-0.019,0.97-0.037,1.308-0.18c0.461-0.273,0.846-0.734,1.229-1.198
		c0.57-0.687,1.146-1.377,2.044-1.635h0.004l0.009-0.002l0.002-0.002c0.169-0.045,0.348-0.076,0.531-0.095
		c0.179-0.018,0.357-0.021,0.536-0.012h0.002c0.903,0.043,1.837,0.392,2.6,0.849l0.008,0.006c1.776,1.135,3.725,2.171,5.696,2.661
		c1.937,0.48,3.907,0.436,5.771-0.567c0.532-0.304,1.015-0.675,1.486-1.04c0.767-0.591,1.517-1.169,2.482-1.49l0.019-0.007
		c0.572-0.155,1.146-0.286,1.695-0.325c0.577-0.041,1.135,0.018,1.645,0.243l0.024,0.011c1.356,0.731,1.716,1.996,2.105,3.379
		l0.069,0.244l0.003,0.01c0.114,0.457,0.549,0.734,1.111,0.9c0.636,0.188,1.431,0.235,2.157,0.235v0.701
		C217.114,301.824,216.254,301.771,215.536,301.559z M206.706,307.011l-0.684,0.151c-0.225-1.01,0.052-1.901,0.579-2.678
		c0.037-0.056,0.075-0.109,0.114-0.164c-2.902,1.197-6.23,1.52-9.22,0.4c-0.743-0.277-1.465-0.646-2.15-1.105
		c-0.689-0.465-1.345-1.023-1.951-1.687l-0.001-0.002l-0.018-0.018l-0.004-0.007c-0.276-0.316-0.741-0.6-1.185-0.701
		c-0.156-0.036-0.309-0.049-0.439-0.029c-0.113,0.018-0.212,0.057-0.288,0.121c-0.084,0.073-0.149,0.188-0.188,0.354
		c-0.248,1.336,0.93,2.621,2.336,3.521c0.285,0.184,0.579,0.35,0.872,0.497c0.291,0.146,0.585,0.276,0.871,0.386l0.01,0.006
		l-0.243,0.653l-0.014-0.005h-0.002c-0.304-0.115-0.619-0.255-0.938-0.415c-0.315-0.159-0.632-0.338-0.936-0.532
		c-1.619-1.038-2.965-2.566-2.646-4.25l0.003-0.014c0.073-0.32,0.22-0.561,0.412-0.729c0.187-0.161,0.408-0.254,0.648-0.288
		c0.222-0.031,0.459-0.015,0.694,0.041c0.578,0.133,1.185,0.502,1.551,0.918l0.016,0.018c0.572,0.623,1.185,1.148,1.824,1.578
		c0.642,0.432,1.313,0.774,2.007,1.033c3.573,1.336,7.685,0.479,10.844-1.487l0.389,0.583l-0.019,0.013l-0.002,0.001
		c-0.666,0.477-1.33,1.048-1.772,1.701C206.755,305.504,206.53,306.218,206.706,307.011z M185.185,306.244
		c-0.413,0.626-0.826,1.254-1.684,1.48l-0.178-0.677c0.599-0.16,0.938-0.675,1.276-1.188c0.44-0.67,0.883-1.34,1.854-1.522
		l0.004-0.001l0.014-0.003h0.002c0.254-0.044,0.514-0.067,0.772-0.069c0.263-0.003,0.521,0.016,0.767,0.053v0.002
		c1.307,0.203,2.48,0.959,3.036,2.229l-0.643,0.279c-0.45-1.031-1.419-1.649-2.5-1.816l-0.001,0.001
		c-0.219-0.032-0.438-0.049-0.653-0.047c-0.216,0.002-0.438,0.022-0.66,0.062l-0.014,0.002l0,0
		C185.903,305.154,185.542,305.699,185.185,306.244z M176.799,290.449v21.648h-1.805v-22.552v-0.901h0.902h38.285v1.805H176.799z
		 M170.885,284.938v-0.898h0.902h45.902v1.798h-45v29.067h-1.806L170.885,284.938L170.885,284.938z M141.219,284.938v-0.901h0.901
		h25.056v1.804h-24.153v29.064h-1.805L141.219,284.938L141.219,284.938z M163.77,288.646v1.804h-16.537v21.647h-1.805v-22.551v-0.9
		h0.901H163.77z M119.772,356.998h-1.806v-32.674v-0.898h0.902h38.986v1.797h-38.084L119.772,356.998L119.772,356.998z
		 M159.496,340.832c0.517-0.369,1.019-0.729,1.377-1.268l0.581,0.389c-0.432,0.648-0.981,1.043-1.55,1.449h-0.001
		c-0.275,0.195-0.555,0.396-0.815,0.625v-0.002c-0.881,0.805-2.049,1.012-3.229,1.223c-0.539,0.096-1.081,0.191-1.57,0.341
		l0.001,0.001l-0.038,0.012l-0.877,0.273l0.474-0.787c0.58-0.969,1.161-2.176,1.292-3.293c0.122-1.044-0.163-2.021-1.265-2.637
		l-0.004-0.002c-0.934-0.541-1.907-0.131-2.919,0.298c-0.866,0.366-1.759,0.743-2.751,0.647l0.065-0.695
		c0.817,0.078,1.628-0.264,2.414-0.596c1.174-0.496,2.304-0.975,3.536-0.265c1.404,0.787,1.771,2.017,1.617,3.328
		c-0.111,0.963-0.515,1.964-0.979,2.851c0.295-0.063,0.589-0.115,0.884-0.168c1.082-0.191,2.154-0.384,2.884-1.052l0.005-0.005
		C158.916,341.249,159.209,341.039,159.496,340.832L159.496,340.832z M123.88,354.191h-1.804v-25.357v-0.9h0.902h32.771v1.803
		h-31.87V354.191z M142.737,348.432c-0.547,0.769-1.391,1.338-2.382,1.607c-0.131,0.035-0.255,0.064-0.373,0.087h-0.001
		c-1.65,0.31-3.22,0.258-4.748-0.012c-1.516-0.267-2.989-0.75-4.46-1.308l-1.788-0.68h1.911h0.301v0.089
		c1.376,0.517,2.751,0.959,4.157,1.207c1.452,0.257,2.939,0.306,4.496,0.015c0.116-0.021,0.226-0.047,0.32-0.072
		c0.834-0.229,1.542-0.702,1.995-1.34c0.447-0.625,0.647-1.418,0.481-2.291c-0.017-0.086-0.038-0.178-0.063-0.272l-0.006-0.028
		c-0.111-0.615-0.548-1.084-0.99-1.561c-0.268-0.287-0.54-0.58-0.762-0.912c-0.515-0.634-0.366-1.468,0.021-2.227h0.001
		c0.071-0.141,0.148-0.275,0.229-0.404c0.087-0.137,0.174-0.262,0.259-0.375l0.157,0.117l0.413,0.287l-0.003,0.005l-0.006,0.009
		c-0.082,0.111-0.16,0.223-0.229,0.33c-0.072,0.115-0.141,0.232-0.2,0.348l0.003,0.002c-0.276,0.543-0.403,1.117-0.087,1.486
		l0.02,0.021l0.008,0.01c0.196,0.297,0.445,0.563,0.689,0.826c0.507,0.547,1.007,1.082,1.16,1.887
		c0.028,0.105,0.055,0.213,0.074,0.322C143.54,346.68,143.29,347.654,142.737,348.432z M141.787,336.59
		c-0.911-0.593-1.783-1.158-2.744-0.814c-1.128,0.468-1.354,1.857-1.562,3.152c-0.066,0.406-0.131,0.805-0.222,1.178v0.002
		l-0.01,0.037l-0.006,0.019c-0.315,1.028-1.241,1.937-2.296,2.481c-0.204,0.105-0.414,0.198-0.622,0.274
		c-0.212,0.077-0.427,0.142-0.639,0.188h-0.001c-0.319,0.084-0.626,0.131-0.919,0.144c-0.896,0.033-1.636-0.269-2.21-0.801
		c-0.559-0.519-0.954-1.255-1.185-2.104c-0.132-0.488-0.209-1.021-0.229-1.574l0.697-0.025c0.021,0.498,0.09,0.977,0.208,1.42
		c0.196,0.729,0.525,1.348,0.983,1.771c0.441,0.41,1.013,0.642,1.709,0.614c0.238-0.01,0.494-0.05,0.77-0.122l0.019-0.005
		l0.009-0.002c0.184-0.04,0.365-0.094,0.546-0.159c0.186-0.068,0.367-0.148,0.543-0.24c0.896-0.463,1.68-1.213,1.942-2.047
		l0.01-0.037h0.001c0.083-0.345,0.146-0.729,0.208-1.119c0.24-1.484,0.5-3.078,1.992-3.692l0.014-0.005
		c1.292-0.471,2.311,0.189,3.374,0.883c0.889,0.576,1.815,1.18,2.904,1.005l0.11,0.69
		C143.827,337.916,142.785,337.238,141.787,336.59z M159.002,349.507c-0.256,0.144-0.521,0.275-0.79,0.394
		c-1.098,0.48-2.269,0.73-3.356,0.732v0.001h-0.005c-0.383,0-0.789,0.028-1.205,0.06c-1.375,0.099-2.857,0.205-4.092-0.613
		c-2.186-1.355-1.685-3.439-1.178-5.543c0.215-0.893,0.432-1.79,0.413-2.6l-0.002-0.063l-0.001-0.011
		c0-0.032-0.183-0.061-0.391-0.199c-0.046-0.03-0.101-0.064-0.157-0.1l-0.001-0.002c-0.051-0.028-0.104-0.059-0.15-0.082l0,0
		l-0.009-0.006l0.312-0.625l0.01,0.006h0.001c0.062,0.03,0.128,0.066,0.192,0.105c0.059,0.035,0.123,0.076,0.19,0.121
		c0.374,0.252,0.702,0.604,0.702,0.781h-0.001l0.002,0.055v0.004c0.02,0.895-0.208,1.838-0.435,2.775
		c-0.445,1.856-0.889,3.695,0.868,4.787l0.01,0.006c1.036,0.691,2.399,0.594,3.662,0.504c0.434-0.031,0.855-0.062,1.256-0.062h0.005
		v0.002c0.993,0,2.066-0.231,3.078-0.676c0.244-0.107,0.487-0.229,0.727-0.361c1.213-0.682,2.271-1.687,2.891-2.975l0.631,0.305
		C161.493,347.652,160.331,348.76,159.002,349.507z M166.259,310.223c-1.539-0.547-3.078-1.043-4.619-1.326
		c-1.526-0.28-3.063-0.354-4.62-0.062l-0.121-0.647c-1.341,1.461-3.271,1.939-5.183,2.414c-0.429,0.105-0.857,0.213-1.263,0.325
		l-0.02,0.007l-0.189-0.675l0.021-0.006h0.001c0.432-0.121,0.856-0.228,1.282-0.332c2.061-0.51,4.141-1.026,5.312-2.824v0.001
		c0.057-0.089,0.114-0.187,0.174-0.294c0.579-1.032,0.935-2.34,0.882-3.553c-0.051-1.17-0.486-2.25-1.48-2.881l-0.001-0.002
		c-0.049-0.031-0.102-0.062-0.153-0.093l-0.008-0.004l-0.021-0.013l-0.004-0.003c-0.125-0.07-0.265-0.136-0.412-0.188
		c-0.148-0.055-0.316-0.1-0.495-0.133c-0.88-0.17-1.928-0.039-2.551,0.584l-0.003,0.004l-0.001-0.002
		c-0.213,0.213-0.415,0.453-0.602,0.713c-0.188,0.262-0.362,0.547-0.518,0.849c-0.778,1.516-1.037,3.41-0.044,4.801l-0.568,0.406
		c-1.169-1.636-0.894-3.81-0.01-5.527c0.169-0.329,0.361-0.645,0.571-0.936c0.211-0.293,0.438-0.562,0.673-0.798v-0.002l0.004-0.004
		c0.806-0.805,2.104-0.982,3.179-0.776c0.205,0.039,0.407,0.095,0.601,0.164s0.373,0.151,0.53,0.243l0.004,0.002l0.016,0.01
		c0.063,0.035,0.127,0.072,0.188,0.111c0.767,0.487,1.261,1.183,1.536,1.977c0.16-0.032,0.326-0.071,0.49-0.115
		c0.307-0.081,0.614-0.181,0.91-0.3c1.484-0.588,2.833-1.658,2.77-3.258l-0.023-0.593l0.528,0.267l0.001-0.001
		c0.333,0.157,0.686,0.309,1.046,0.462c1.774,0.758,3.717,1.588,4.343,3.556l-0.666,0.211c-0.526-1.66-2.316-2.425-3.95-3.121
		c-0.202-0.088-0.403-0.174-0.6-0.261c-0.201,1.664-1.631,2.771-3.189,3.39c-0.33,0.131-0.665,0.24-0.989,0.326
		c-0.165,0.045-0.329,0.084-0.491,0.116c0.049,0.259,0.079,0.521,0.091,0.789c0.058,1.345-0.333,2.787-0.97,3.927
		c-0.061,0.104-0.125,0.215-0.197,0.327l-0.002,0.003c-0.156,0.239-0.325,0.459-0.505,0.659c1.632-0.298,3.235-0.221,4.823,0.071
		c1.59,0.292,3.158,0.799,4.726,1.354L166.259,310.223z M153.797,305.684c0-0.435,0.058-0.846,0.182-1.233
		c0.126-0.394,0.322-0.759,0.603-1.095l0.538,0.446c-0.22,0.265-0.375,0.552-0.475,0.86c-0.101,0.312-0.146,0.654-0.146,1.021
		H153.797L153.797,305.684z M166.511,304.287c-0.529-0.281-1.237-0.352-1.847-0.236c-0.306,0.059-0.581,0.163-0.784,0.309
		c-0.175,0.123-0.296,0.279-0.33,0.459c-0.031,0.166,0.003,0.367,0.128,0.603l0.003,0.007c0.437,0.872,1.517,1.309,2.693,1.309
		v0.703c-1.424,0-2.748-0.564-3.314-1.691h-0.001c-0.205-0.387-0.259-0.744-0.196-1.061c0.071-0.369,0.296-0.67,0.613-0.896
		c0.289-0.206,0.659-0.35,1.058-0.426h0.002c0.749-0.144,1.632-0.051,2.305,0.309L166.511,304.287z M169.482,356.296h-1.804v-35.479
		v-0.901h0.901h46.003v1.805h-45.102L169.482,356.296L169.482,356.296z M173.692,353.489h-1.804v-28.163v-0.901h0.9h38.286v1.804
		h-37.384L173.692,353.489L173.692,353.489z M188.377,348.025c-0.314-0.315-0.688-0.459-1.063-0.604v-0.002
		c-0.533-0.204-1.073-0.413-1.566-1.029c-0.154-0.191-0.73,0-1.169,0.205c-0.1,0.047-0.19,0.094-0.268,0.139
		c-0.069,0.039-0.13,0.078-0.18,0.115c-0.367,0.289-0.688,0.562-1.006,0.832c-1.039,0.885-2.063,1.756-3.403,2.229l-0.232-0.661
		c1.223-0.432,2.197-1.261,3.185-2.102c0.35-0.297,0.699-0.596,1.024-0.852l0.008-0.004l0.003-0.002l0.001-0.002
		c0.064-0.047,0.15-0.104,0.252-0.162c0.097-0.055,0.206-0.113,0.32-0.166c0.661-0.311,1.59-0.533,2.011-0.008
		c0.375,0.471,0.824,0.645,1.27,0.812h0.001c0.448,0.172,0.893,0.344,1.312,0.762L188.377,348.025z M189.69,343.355
		c-0.26-0.987-1.312-1.554-2.396-2.135c-0.801-0.433-1.618-0.871-2.223-1.515h0.001l-0.001-0.001l-0.001,0.001
		c-0.322-0.322-0.53-0.529-0.729-0.615v-0.001c-0.129-0.055-0.282-0.07-0.505-0.048c0.071,0.28,0.163,0.56,0.254,0.83
		c0.226,0.68,0.442,1.334,0.374,2.024l-0.695-0.067c0.055-0.547-0.142-1.132-0.342-1.737c-0.137-0.41-0.275-0.831-0.355-1.273
		l-0.062-0.338l0.338-0.067c0.574-0.114,0.934-0.11,1.271,0.034h0.002c0.325,0.141,0.569,0.385,0.948,0.764l0.005,0.006l0.009,0.01
		l0.001,0.002c0.527,0.561,1.294,0.973,2.044,1.375c1.221,0.656,2.405,1.293,2.742,2.574L189.69,343.355z M217.829,341.949
		l-0.001,0.004c-0.365,1.369-1.48,1.9-2.52,2.396c-0.229,0.108-0.453,0.215-0.642,0.315l-0.004,0.003l-0.002,0.001l-0.003,0.002
		c-0.367,0.248-0.745,0.47-1.129,0.656c-0.388,0.188-0.792,0.349-1.208,0.478c-2.084,0.639-4.387,0.411-6.537-1.158
		c-0.82,0.961-1.923,1.646-3.152,2.129c-1.896,0.742-4.095,1-5.981,1.051l-0.018-0.699c1.82-0.049,3.936-0.295,5.744-1.004
		c1.76-0.688,3.23-1.818,3.849-3.645c0.096-0.432,0.19-0.908,0.203-1.41c0.011-0.494-0.06-1.025-0.288-1.576h0.001l-0.001-0.001
		c-0.038-0.087-0.082-0.177-0.13-0.265v-0.002c-0.051-0.093-0.104-0.183-0.156-0.267h-0.002c-0.291-0.459-0.664-0.882-0.939-1.156
		h0.001c-0.168-0.153-0.348-0.292-0.535-0.409c-0.188-0.119-0.39-0.223-0.597-0.306c-1.062-0.429-2.321-0.364-3.441,0.358
		l-0.015,0.01c-0.506,0.295-0.779,0.645-0.859,1.044c-0.082,0.419,0.029,0.92,0.294,1.497l0.009,0.02l-0.639,0.291l-0.001-0.002
		v-0.002l-0.007-0.015c-0.086-0.172-0.337-0.386-0.692-0.599c-0.551-0.33-1.316-0.627-2.116-0.766
		c-0.782-0.136-1.59-0.117-2.237,0.178V339.1c-0.378,0.174-0.706,0.443-0.94,0.838l-0.186,0.307l-0.301-0.188
		c-0.28-0.176-0.519-0.388-0.757-0.6c-0.438-0.393-0.888-0.79-1.584-0.852c-0.646-0.006-0.743-0.279-0.878-0.662
		c-0.049-0.135-0.104-0.295-0.252-0.442c-0.288-0.288-0.458-0.553-0.605-0.785c-0.226-0.354-0.39-0.61-1.104-0.72l-0.077-0.014
		l-0.064-0.043l-0.008-0.004h0.001l-0.248-0.162l-0.261-0.162c-0.429-0.264-0.841-0.497-1.114-0.635
		c-0.926-0.293-1.945-0.584-2.907-0.606c-0.926-0.022-1.813,0.203-2.537,0.926c-1.064,1.063-1.317,2.474-1.188,3.957
		c0.135,1.537,0.678,3.168,1.173,4.603l-0.663,0.227c-0.508-1.473-1.067-3.15-1.209-4.77c-0.146-1.672,0.152-3.272,1.394-4.513
		c0.88-0.881,1.945-1.155,3.05-1.129c1.062,0.024,2.142,0.334,3.116,0.644l0.021,0.006l0.03,0.016
		c0.302,0.15,0.755,0.402,1.204,0.68h0.002l0.263,0.164l0.005,0.006l0.199,0.129c0.666,0.113,0.98,0.322,1.219,0.604
		c0.31-0.083,0.611-0.146,0.905-0.19c0.399-0.06,0.795-0.086,1.178-0.08c1.977,0.031,3.615,0.912,4.76,2.283l-0.254,0.211
		c0.324,0.004,0.653,0.037,0.977,0.092c0.871,0.15,1.712,0.476,2.325,0.836c-0.028-0.245-0.021-0.481,0.022-0.706
		c0.119-0.601,0.499-1.105,1.192-1.511c1.322-0.852,2.812-0.922,4.07-0.416c0.245,0.101,0.482,0.222,0.708,0.363
		c0.228,0.143,0.44,0.307,0.639,0.486l0.011,0.01l0.011,0.01c0.3,0.299,0.71,0.765,1.035,1.276l-0.001,0.001
		c0.065,0.104,0.127,0.207,0.182,0.309h0.001c0.059,0.105,0.11,0.213,0.157,0.322v0.001l0.002,0.005l0.002,0.004
		c0.271,0.65,0.354,1.275,0.339,1.857c-0.001,0.055-0.004,0.107-0.007,0.163c0.364,0.048,0.736,0.144,1.092,0.233h0.003
		c0.65,0.166,1.237,0.313,1.354,0.11l0.003-0.006v0.001c0.256-0.451,0.357-1.08,0.459-1.714c0.207-1.289,0.419-2.601,1.837-3.052
		c0.859-0.295,1.761-0.307,2.596-0.098c0.743,0.185,1.438,0.547,2.008,1.041c0.572,0.498,1.021,1.131,1.271,1.854
		C217.985,340.324,218.037,341.115,217.829,341.949z M221.498,284.938h41.092v30.367h-41.092V284.938z M285.842,356.296h-61.235
		V321.52h61.235V356.296z"/>
</g>
<path id="_46914736" fill="#428ECE" d="M225.457,312.098v-22.551v-0.551h0.551h31.371h0.552v0.551v22.551v0.551h-0.552h-31.371
	h-0.551V312.098z M226.56,290.098v21.449h30.268v-21.449H226.56z"/>
<path id="_25245768" fill="#428ECE" d="M230.17,351.285v-25.256l-0.001-0.553l0.551,0.002h49.812l0.549-0.002v0.553v25.256v0.551
	h-0.549h-49.812h-0.551L230.17,351.285z M231.268,326.58v24.154h48.713V326.58H231.268z"/>
<path fill="#428ECE" d="M399.896,368.525V0H0.003v368.525c0,0-2.104,87.896,107.239,100.022c6.614,0.701,75.168-0.702,92.707,25.558
	c17.539-26.26,86.093-24.855,92.707-25.558C402.002,456.422,399.896,368.525,399.896,368.525z M289.351,458.625
	c-6.214,0.702-71.66-0.701-88.397,24.354c-16.638-25.056-82.084-23.651-88.396-24.354c-104.234-11.526-102.33-95.312-102.33-95.312
	V11.827h381.451h0.001v351.485C391.679,363.312,393.684,447.099,289.351,458.625z"/>
<path fill="#428ECE" d="M107.744,397.688c0,0,0-18.239,0.102-19.143c0.9-4.41,1.303-8.818,3.708-10.423
	c1.002-0.702,1.201-2.706-1.403-2.405c-1.403,0.2-12.328,0.902-14.434-0.902l-2.305,12.027c0,0,7.316-0.701,1.403,4.209
	c0,0,0.399,1.704,0.399,8.018c0,6.216,0,20.848-1.402,23.654h29.565c1.403,0.301,1.704,1.002,1.704,3.406
	c0,2.506,1.805,8.419-3.106,10.123c-4.911,1.804-7.617,2.104-9.723,2.104l-2.104,11.825c0,0,13.229-4.209,16.737-6.613
	c3.406-2.405,8.317-4.21,8.317-11.427c0-7.315,0-20.245,1.704-22.649h-29.165L107.744,397.688L107.744,397.688z M132.6,405.707
	c-1.504,2.004-0.603,7.518-0.603,13.73c0,6.112-0.1,7.717-1.903,9.119c-2.706,2.307-13.632,6.516-13.632,6.516l1.104-3.708
	c1.804-0.603,4.409-1.805,8.819-3.508c4.009-1.704,2.404-13.632,2.404-15.735c0-2.004-0.301-2.605-1.402-2.906h-26.96
	c1.103-2.406,1.103-14.031,1.103-19.344s0.301-11.525,0.301-11.525c5.011-4.109-2.605-3.106-2.605-3.106l-0.501-7.416
	c0.501,1.303,6.214,1.102,7.315,0.901c2.205-0.301,2.104,1.504,1.203,2.104c-2.005,1.303-1.303,2.707-2.005,6.517
	c-0.2,0.801-0.401,26.858-0.401,26.858v1.504L132.6,405.707L132.6,405.707z"/>
<path fill="#428ECE" d="M183.614,424.849c-1.402-0.7,0-3.105,0-3.105s3.308-2.104,4.31-3.106c1.004-1.104,1.904-1.904,1.904-4.511
	c0-1.403,0-10.522,0-12.228s0.401-2.405-1.703-2.807c-2.104-0.301-7.017-0.301-9.121-0.301c-2.004,0-4.108-0.702-4.108-0.702
	c-0.4,2.405-4.51,12.829-4.51,12.829c1.003,0.701,3.106,0.701,4.811,1.102c1.805,0.301,0.702,0.301,1.403,1.404
	c0.701,1.002,0,6.213,0,6.213c-6.614-2.807-23.953-18.441-25.356-19.443c-1.403-1.102-2.807-0.7-3.207,0.302
	c-0.301,1.103-5.513,8.419-5.513,8.419s2.104,9.723,2.405,13.831c0.4,4.209-2.104,17.139-2.104,17.139h17.64l4.511-11.326h-9.621
	c0,0,0-6.413,0-7.815c0-1.404,0.701-1.404,0.701-1.404s25.056,18.742,26.859,19.845c1.703,1.003,2.004,0.302,2.004,0.302
	l5.312-10.824C188.425,428.056,184.916,425.551,183.614,424.849z M179.405,403.201c0,0,1.604,0.501,3.207,0.501
	c1.603,0,1.103-0.101,2.706-0.101c1.704,0,1.403,2.104,1.403,3.407c0,1.403,0,1.403,0,2.507c0,2.104-0.2,4.608-0.803,5.312
	c-0.802,0.901-3.308,2.506-3.308,2.506s0.902-6.615,0.401-7.417c-0.603-0.802,0.199-0.802-1.104-1.104
	c-1.402-0.301-3.508,0.401-4.31-0.101C177.6,408.713,179.104,405.105,179.405,403.201z M183.714,434.872
	c0,0-0.802-0.802-2.104-1.604c-1.403-0.802-28.864-19.943-28.864-19.943s-0.201,2.004-0.201,3.105
	c0,1.103,0.302,15.033,0.302,15.033h7.816l-2.405,3.909h-9.421c0,0,1.203-9.021,1.002-12.229
	c-0.301-3.607-1.103-12.929-1.103-12.929s1.304-1.504,1.604-2.305c0.302-0.902,1.403-1.203,2.406-0.301
	c2.305,2.104,19.144,18.14,33.374,22.851L183.714,434.872z"/>
<path fill="#428ECE" d="M226.71,399.691c-3.308,0-21.948,0-22.751,0c-0.901,0-4.41-1.103-5.812-3.006l-3.81,12.93
	c0,0,0.2,3.607,4.409,3.607c4.109,0,18.742,0,18.742,0v26.959c0,0,10.624-4.209,11.125-4.51c0.501-0.4,0.901-0.501,0.901-2.806
	c0-2.205,0-29.769,0-29.769S230.018,399.691,226.71,399.691z M226.008,407.311c0,0,0,20.547,0,22.351s-0.3,2.005-0.7,2.205
	c-0.4,0.301-3.309,0.901-3.309,0.901v-23.652c0,0-13.63,0-17.038,0c-3.307,0-3.406-3.008-3.406-3.008l0.802-3.508
	c1.103,1.604,3.909,2.406,4.609,2.406c0.603,0,13.933,0,16.639,0C226.209,405.006,226.008,407.311,226.008,407.311z"/>
<path fill="#428ECE" d="M278.426,399.691l-3.508,11.928l3.81,0.701c0,0,0.501,5.212-0.302,7.315
	c-0.901,2.105-1.805,3.709-3.308,4.41c-1.604,0.702-9.722,2.005-9.722,2.005s7.116-25.057,7.216-26.359h-12.628l-4.21,11.227
	l4.01,1.102c0,0-5.713,13.933-6.916,15.136c0,0-4.209-5.412-1.804-13.632c1.002-3.207,2.706-10.223,3.708-11.926
	c0.701-1.203-1.303-1.904-2.605-1.904c-1.402,0-5.11,0.802-11.525-2.006l-5.012,11.526c0,0,1.202,2.306,4.71,3.007
	c3.408,0.701,0.603,3.307,0,3.809c-0.7,0.502-1.401,2.104-1.401,3.81c0,1.703-0.401,20.345-0.401,20.345s35.078-4.71,37.584-5.211
	c1.805-0.301,1.805-0.702,2.808-1.604c1.002-0.803,6.613-7.617,7.114-8.319c0.502-0.701,0.502-0.9,0.702-2.604
	c0.2-1.703,1.403-22.752,1.403-22.752h-9.723V399.691z M284.74,419.236c-0.1,1.404-0.701,4.01-1.103,4.511
	c-0.4,0.602-5.713,5.512-6.516,6.214c-0.9,0.701-0.9,0.902-2.305,1.203c-2.005,0.4-31.271,4.209-31.271,4.209
	s0.301-14.934,0.301-16.336c0-1.404,0.4-3.51,0.901-3.909c0.603-0.401,3.709-4.511,1.805-5.011
	c-2.807-0.602-4.108-1.305-4.108-1.305l2.405-5.211c2.604,0.2,3.207,0.901,4.31,0.901c1.202,0,2.706,0.502,2.104,1.504
	c-0.701,1.402-2.104,7.017-2.906,9.621c-0.701,2.405-0.902,13.029-0.102,14.833c0.501,1.104,8.419-0.2,8.419-0.2
	c1.003-0.901,8.721-20.745,8.721-20.745h-4.711l2.104-4.109h6.313c-0.101,1.102-7.718,24.755-7.718,24.755
	s13.631-1.804,14.934-2.405c1.203-0.501,4.911-4.009,5.513-5.713c0.701-1.604,1.202-11.023,1.202-11.023l-3.407-0.201l1.604-5.612
	l4.711,0.101C285.943,405.307,284.84,417.834,284.74,419.236z"/>
<path fill="#428ECE" d="M310.597,397.688c-2.104,0-7.017,0.703-9.021,0.401c-2.104-0.401-4.911-1.704-4.911-1.704l-5.611,15.635
	c1.402,1.404,8.418,0.703,8.418,0.703l-1.402,11.426l11.525-3.107c-1.104-3.809,2.404-14.633,3.408-18.04
	C314.105,399.492,312.702,397.688,310.597,397.688z M308.093,407.511c-0.702,2.405-1.704,7.116-1.704,10.022l-2.808,0.802
	l1.004-8.519c0,0-2.706,1.102-5.913,0l2.004-5.213c0,0,1.604-0.101,3.106,0.2c1.402,0.201,1.703,0.101,3.106,0.101
	C308.392,404.904,308.894,405.006,308.093,407.511z"/>
</svg>
